<?xml version="1.0" encoding="UTF-8" standalone="no"?><svg xmlns="http://www.w3.org/2000/svg" xmlns:xlink="http://www.w3.org/1999/xlink" contentStyleType="text/css" height="664px" preserveAspectRatio="none" style="width:523px;height:664px;background:#FFFFFF;" version="1.1" viewBox="0 0 523 664" width="523px" zoomAndPan="magnify"><defs><filter height="300%" id="f4y03bytf4i5g" width="300%" x="-1" y="-1"><feGaussianBlur result="blurOut" stdDeviation="2.0"/><feColorMatrix in="blurOut" result="blurOut2" type="matrix" values="0 0 0 0 0 0 0 0 0 0 0 0 0 0 0 0 0 0 .4 0"/><feOffset dx="4.0" dy="4.0" in="blurOut2" result="blurOut3"/><feBlend in="SourceGraphic" in2="blurOut3" mode="normal"/></filter></defs><g><rect fill="none" height="27.6094" id="_title" style="stroke:none;stroke-width:1.0;" width="215" x="152.5" y="15"/><text fill="#000000" font-family="sans-serif" font-size="14" font-weight="bold" lengthAdjust="spacing" textLength="205" x="157.5" y="34.5332">Stigespill - Aktivitets Diagram</text><ellipse cx="329.75" cy="58.6094" fill="#000000" filter="url(#f4y03bytf4i5g)" rx="10" ry="10" style="stroke:#000000;stroke-width:1.0;"/><rect fill="#FEFECE" filter="url(#f4y03bytf4i5g)" height="35.0938" rx="12.5" ry="12.5" style="stroke:#A80036;stroke-width:1.5;" width="63" x="298.25" y="88.6094"/><text fill="#000000" font-family="sans-serif" font-size="12" lengthAdjust="spacing" textLength="43" x="308.25" y="111.0664">Init Spill</text><polygon fill="#FEFECE" filter="url(#f4y03bytf4i5g)" points="311.25,187.7031,348.25,187.7031,360.25,199.7031,348.25,211.7031,311.25,211.7031,299.25,199.7031,311.25,187.7031" style="stroke:#A80036;stroke-width:1.5;"/><text fill="#000000" font-family="sans-serif" font-size="11" lengthAdjust="spacing" textLength="37" x="311.25" y="204.2041">Din tur?</text><text fill="#000000" font-family="sans-serif" font-size="11" lengthAdjust="spacing" textLength="8" x="291.25" y="197.2861">ja</text><text fill="#000000" font-family="sans-serif" font-size="11" lengthAdjust="spacing" textLength="14" x="360.25" y="197.2861">nei</text><rect fill="#FEFECE" filter="url(#f4y03bytf4i5g)" height="35.0938" rx="12.5" ry="12.5" style="stroke:#A80036;stroke-width:1.5;" width="85" x="163" y="221.7031"/><text fill="#000000" font-family="sans-serif" font-size="12" lengthAdjust="spacing" textLength="65" x="173" y="244.1602">Trill Terning</text><polygon fill="#FEFECE" filter="url(#f4y03bytf4i5g)" points="117.5,276.7969,293.5,276.7969,305.5,288.7969,293.5,300.7969,117.5,300.7969,105.5,288.7969,117.5,276.7969" style="stroke:#A80036;stroke-width:1.5;"/><text fill="#000000" font-family="sans-serif" font-size="11" lengthAdjust="spacing" textLength="176" x="117.5" y="293.2979">Resulterende posisjon mer enn 100?</text><text fill="#000000" font-family="sans-serif" font-size="11" lengthAdjust="spacing" textLength="8" x="97.5" y="286.3799">ja</text><text fill="#000000" font-family="sans-serif" font-size="11" lengthAdjust="spacing" textLength="14" x="305.5" y="286.3799">nei</text><rect fill="#FEFECE" filter="url(#f4y03bytf4i5g)" height="35.0938" rx="12.5" ry="12.5" style="stroke:#A80036;stroke-width:1.5;" width="169" x="11" y="310.7969"/><text fill="#000000" font-family="sans-serif" font-size="12" lengthAdjust="spacing" textLength="149" x="21" y="333.2539">Bli stående på samme rute</text><rect fill="#FEFECE" filter="url(#f4y03bytf4i5g)" height="35.0938" rx="12.5" ry="12.5" style="stroke:#A80036;stroke-width:1.5;" width="119" x="256" y="310.7969"/><text fill="#000000" font-family="sans-serif" font-size="12" lengthAdjust="spacing" textLength="99" x="266" y="333.2539">Flytt til ny posisjon</text><polygon fill="#FEFECE" filter="url(#f4y03bytf4i5g)" points="205.5,351.8906,217.5,363.8906,205.5,375.8906,193.5,363.8906,205.5,351.8906" style="stroke:#A80036;stroke-width:1.5;"/><rect fill="#FEFECE" filter="url(#f4y03bytf4i5g)" height="35.0938" rx="12.5" ry="12.5" style="stroke:#A80036;stroke-width:1.5;" width="169" x="121" y="452.1797"/><text fill="#000000" font-family="sans-serif" font-size="12" lengthAdjust="spacing" textLength="149" x="131" y="474.6367">Flytt brikke til riktig posisjon</text><polygon fill="#FEFECE" filter="url(#f4y03bytf4i5g)" points="161,403.2617,250,403.2617,262,415.2617,250,427.2617,161,427.2617,149,415.2617,161,403.2617" style="stroke:#A80036;stroke-width:1.5;"/><text fill="#000000" font-family="sans-serif" font-size="11" lengthAdjust="spacing" textLength="8" x="209.5" y="438.6807">ja</text><text fill="#000000" font-family="sans-serif" font-size="11" lengthAdjust="spacing" textLength="89" x="161" y="419.7627">Stige Eller Slange?</text><text fill="#000000" font-family="sans-serif" font-size="11" lengthAdjust="spacing" textLength="14" x="262" y="412.8447">nei</text><polygon fill="#FEFECE" filter="url(#f4y03bytf4i5g)" points="205.5,507.2734,217.5,519.2734,205.5,531.2734,193.5,519.2734,205.5,507.2734" style="stroke:#A80036;stroke-width:1.5;"/><rect fill="#FEFECE" filter="url(#f4y03bytf4i5g)" height="35.0938" rx="12.5" ry="12.5" style="stroke:#A80036;stroke-width:1.5;" width="98" x="385" y="221.7031"/><text fill="#000000" font-family="sans-serif" font-size="12" lengthAdjust="spacing" textLength="78" x="395" y="244.1602">Vent på din tur</text><polygon fill="#FEFECE" filter="url(#f4y03bytf4i5g)" points="329.75,537.2734,341.75,549.2734,329.75,561.2734,317.75,549.2734,329.75,537.2734" style="stroke:#A80036;stroke-width:1.5;"/><polygon fill="#FEFECE" filter="url(#f4y03bytf4i5g)" points="329.75,143.7031,341.75,155.7031,329.75,167.7031,317.75,155.7031,329.75,143.7031" style="stroke:#A80036;stroke-width:1.5;"/><polygon fill="#FEFECE" filter="url(#f4y03bytf4i5g)" points="311.75,581.2734,347.75,581.2734,359.75,593.2734,347.75,605.2734,311.75,605.2734,299.75,593.2734,311.75,581.2734" style="stroke:#A80036;stroke-width:1.5;"/><text fill="#000000" font-family="sans-serif" font-size="11" lengthAdjust="spacing" textLength="36" x="311.75" y="597.7744">Ferdig?</text><ellipse cx="329.75" cy="636.2734" fill="#FFFFFF" filter="url(#f4y03bytf4i5g)" rx="11" ry="11" style="stroke:#000000;stroke-width:1.0;"/><ellipse cx="329.75" cy="636.2734" fill="#000000" rx="6" ry="6" style="stroke:#7F7F7F;stroke-width:1.0;"/><line style="stroke:#A80036;stroke-width:1.5;" x1="329.75" x2="329.75" y1="68.6094" y2="88.6094"/><polygon fill="#A80036" points="325.75,78.6094,329.75,88.6094,333.75,78.6094,329.75,82.6094" style="stroke:#A80036;stroke-width:1.0;"/><line style="stroke:#A80036;stroke-width:1.5;" x1="105.5" x2="95.5" y1="288.7969" y2="288.7969"/><line style="stroke:#A80036;stroke-width:1.5;" x1="95.5" x2="95.5" y1="288.7969" y2="310.7969"/><polygon fill="#A80036" points="91.5,300.7969,95.5,310.7969,99.5,300.7969,95.5,304.7969" style="stroke:#A80036;stroke-width:1.0;"/><line style="stroke:#A80036;stroke-width:1.5;" x1="305.5" x2="315.5" y1="288.7969" y2="288.7969"/><line style="stroke:#A80036;stroke-width:1.5;" x1="315.5" x2="315.5" y1="288.7969" y2="310.7969"/><polygon fill="#A80036" points="311.5,300.7969,315.5,310.7969,319.5,300.7969,315.5,304.7969" style="stroke:#A80036;stroke-width:1.0;"/><line style="stroke:#A80036;stroke-width:1.5;" x1="95.5" x2="95.5" y1="345.8906" y2="363.8906"/><line style="stroke:#A80036;stroke-width:1.5;" x1="95.5" x2="193.5" y1="363.8906" y2="363.8906"/><polygon fill="#A80036" points="183.5,359.8906,193.5,363.8906,183.5,367.8906,187.5,363.8906" style="stroke:#A80036;stroke-width:1.0;"/><line style="stroke:#A80036;stroke-width:1.5;" x1="315.5" x2="315.5" y1="345.8906" y2="363.8906"/><line style="stroke:#A80036;stroke-width:1.5;" x1="315.5" x2="217.5" y1="363.8906" y2="363.8906"/><polygon fill="#A80036" points="227.5,359.8906,217.5,363.8906,227.5,367.8906,223.5,363.8906" style="stroke:#A80036;stroke-width:1.0;"/><line style="stroke:#A80036;stroke-width:1.5;" x1="205.5" x2="205.5" y1="256.7969" y2="276.7969"/><polygon fill="#A80036" points="201.5,266.7969,205.5,276.7969,209.5,266.7969,205.5,270.7969" style="stroke:#A80036;stroke-width:1.0;"/><line style="stroke:#A80036;stroke-width:1.5;" x1="205.5" x2="205.5" y1="427.2617" y2="452.1797"/><polygon fill="#A80036" points="201.5,442.1797,205.5,452.1797,209.5,442.1797,205.5,446.1797" style="stroke:#A80036;stroke-width:1.0;"/><line style="stroke:#A80036;stroke-width:1.5;" x1="262" x2="300" y1="415.2617" y2="415.2617"/><polygon fill="#A80036" points="296,459.7266,300,469.7266,304,459.7266,300,463.7266" style="stroke:#A80036;stroke-width:1.5;"/><line style="stroke:#A80036;stroke-width:1.5;" x1="300" x2="300" y1="415.2617" y2="519.2734"/><line style="stroke:#A80036;stroke-width:1.5;" x1="300" x2="217.5" y1="519.2734" y2="519.2734"/><polygon fill="#A80036" points="227.5,515.2734,217.5,519.2734,227.5,523.2734,223.5,519.2734" style="stroke:#A80036;stroke-width:1.0;"/><line style="stroke:#A80036;stroke-width:1.5;" x1="205.5" x2="205.5" y1="487.2734" y2="507.2734"/><polygon fill="#A80036" points="201.5,497.2734,205.5,507.2734,209.5,497.2734,205.5,501.2734" style="stroke:#A80036;stroke-width:1.0;"/><line style="stroke:#A80036;stroke-width:1.5;" x1="205.5" x2="205.5" y1="375.8906" y2="403.2617"/><polygon fill="#A80036" points="201.5,393.2617,205.5,403.2617,209.5,393.2617,205.5,397.2617" style="stroke:#A80036;stroke-width:1.0;"/><line style="stroke:#A80036;stroke-width:1.5;" x1="299.25" x2="205.5" y1="199.7031" y2="199.7031"/><line style="stroke:#A80036;stroke-width:1.5;" x1="205.5" x2="205.5" y1="199.7031" y2="221.7031"/><polygon fill="#A80036" points="201.5,211.7031,205.5,221.7031,209.5,211.7031,205.5,215.7031" style="stroke:#A80036;stroke-width:1.0;"/><line style="stroke:#A80036;stroke-width:1.5;" x1="360.25" x2="434" y1="199.7031" y2="199.7031"/><line style="stroke:#A80036;stroke-width:1.5;" x1="434" x2="434" y1="199.7031" y2="221.7031"/><polygon fill="#A80036" points="430,211.7031,434,221.7031,438,211.7031,434,215.7031" style="stroke:#A80036;stroke-width:1.0;"/><line style="stroke:#A80036;stroke-width:1.5;" x1="205.5" x2="205.5" y1="531.2734" y2="549.2734"/><line style="stroke:#A80036;stroke-width:1.5;" x1="205.5" x2="317.75" y1="549.2734" y2="549.2734"/><polygon fill="#A80036" points="307.75,545.2734,317.75,549.2734,307.75,553.2734,311.75,549.2734" style="stroke:#A80036;stroke-width:1.0;"/><line style="stroke:#A80036;stroke-width:1.5;" x1="434" x2="434" y1="256.7969" y2="549.2734"/><line style="stroke:#A80036;stroke-width:1.5;" x1="434" x2="341.75" y1="549.2734" y2="549.2734"/><polygon fill="#A80036" points="351.75,545.2734,341.75,549.2734,351.75,553.2734,347.75,549.2734" style="stroke:#A80036;stroke-width:1.0;"/><line style="stroke:#A80036;stroke-width:1.5;" x1="329.75" x2="329.75" y1="167.7031" y2="187.7031"/><polygon fill="#A80036" points="325.75,177.7031,329.75,187.7031,333.75,177.7031,329.75,181.7031" style="stroke:#A80036;stroke-width:1.0;"/><line style="stroke:#A80036;stroke-width:1.5;" x1="359.75" x2="497" y1="593.2734" y2="593.2734"/><polygon fill="#A80036" points="493,383.2617,497,373.2617,501,383.2617,497,379.2617" style="stroke:#A80036;stroke-width:1.5;"/><line style="stroke:#A80036;stroke-width:1.5;" x1="497" x2="497" y1="155.7031" y2="593.2734"/><line style="stroke:#A80036;stroke-width:1.5;" x1="497" x2="341.75" y1="155.7031" y2="155.7031"/><polygon fill="#A80036" points="351.75,151.7031,341.75,155.7031,351.75,159.7031,347.75,155.7031" style="stroke:#A80036;stroke-width:1.0;"/><line style="stroke:#A80036;stroke-width:1.5;" x1="329.75" x2="329.75" y1="561.2734" y2="581.2734"/><polygon fill="#A80036" points="325.75,571.2734,329.75,581.2734,333.75,571.2734,329.75,575.2734" style="stroke:#A80036;stroke-width:1.0;"/><line style="stroke:#A80036;stroke-width:1.5;" x1="329.75" x2="329.75" y1="123.7031" y2="143.7031"/><polygon fill="#A80036" points="325.75,133.7031,329.75,143.7031,333.75,133.7031,329.75,137.7031" style="stroke:#A80036;stroke-width:1.0;"/><line style="stroke:#A80036;stroke-width:1.5;" x1="329.75" x2="329.75" y1="605.2734" y2="625.2734"/><polygon fill="#A80036" points="325.75,615.2734,329.75,625.2734,333.75,615.2734,329.75,619.2734" style="stroke:#A80036;stroke-width:1.0;"/><!--MD5=[3076e20305ebd7a3f8f3be7800e5175b]
@startuml Aktivitetsdiagram

skin rose

title Stigespill - Aktivitets Diagram 


start
:Init Spill;
repeat
if (Din tur?) then (ja)
	:Trill Terning;
	if (Resulterende posisjon mer enn 100?) then (ja)
		:Bli stående på samme rute;
	else (nei)
		:Flytt til ny posisjon;
	endif
	if (Stige Eller Slange?) then (ja)
		:Flytt brikke til riktig posisjon;
	else (nei)
	endif
else (nei)
	:Vent på din tur;
endif

repeat while (Ferdig?)

stop

@enduml

PlantUML version 1.2022.7(Mon Aug 22 19:01:30 CEST 2022)
(GPL source distribution)
Java Runtime: OpenJDK Runtime Environment
JVM: OpenJDK 64-Bit Server VM
Default Encoding: UTF-8
Language: en
Country: GB
--></g></svg>