<?xml version="1.0" encoding="UTF-8" standalone="no"?><svg xmlns="http://www.w3.org/2000/svg" xmlns:xlink="http://www.w3.org/1999/xlink" contentStyleType="text/css" height="430px" preserveAspectRatio="none" style="width:437px;height:430px;background:#FFFFFF;" version="1.1" viewBox="0 0 437 430" width="437px" zoomAndPan="magnify"><defs><filter height="300%" id="frttv2gidaz2h" width="300%" x="-1" y="-1"><feGaussianBlur result="blurOut" stdDeviation="2.0"/><feColorMatrix in="blurOut" result="blurOut2" type="matrix" values="0 0 0 0 0 0 0 0 0 0 0 0 0 0 0 0 0 0 .4 0"/><feOffset dx="4.0" dy="4.0" in="blurOut2" result="blurOut3"/><feBlend in="SourceGraphic" in2="blurOut3" mode="normal"/></filter></defs><g><rect fill="none" height="27.6094" id="_title" style="stroke:none;stroke-width:1.0;" width="193" x="115.25" y="5"/><text fill="#000000" font-family="sans-serif" font-size="14" font-weight="bold" lengthAdjust="spacing" textLength="183" x="120.25" y="24.5332">Stigespill - Domenemodell</text><!--MD5=[84cf3236217fe7cb7b077db6a09d1cf1]
class Stigespill--><g id="elem_Stigespill"><rect codeLine="6" fill="#FEFECE" filter="url(#frttv2gidaz2h)" height="65.6094" id="Stigespill" style="stroke:#A80036;stroke-width:1.0;" width="88" x="78.5" y="45.6094"/><ellipse cx="93.5" cy="61.6094" fill="#ADD1B2" rx="11" ry="11" style="stroke:#A80036;stroke-width:1.0;"/><path d="M96.2656,57.4844 Q96.4219,57.2656 96.6094,57.1563 Q96.7969,57.0469 97.0156,57.0469 Q97.3906,57.0469 97.625,57.3125 Q97.8594,57.5625 97.8594,58.1719 L97.8594,59.625 Q97.8594,60.2344 97.625,60.5 Q97.3906,60.7656 97.0156,60.7656 Q96.6719,60.7656 96.4688,60.5625 Q96.2656,60.375 96.1563,59.8594 Q96.1094,59.5 95.9219,59.3125 Q95.5938,58.9375 94.9844,58.7188 Q94.375,58.5 93.75,58.5 Q92.9844,58.5 92.3438,58.8281 Q91.7188,59.1563 91.2188,59.9063 Q90.7344,60.6563 90.7344,61.6875 L90.7344,62.7813 Q90.7344,64.0156 91.625,64.8438 Q92.5156,65.6563 94.1094,65.6563 Q95.0469,65.6563 95.7031,65.4063 Q96.0938,65.25 96.5156,64.8125 Q96.7813,64.5469 96.9219,64.4688 Q97.0781,64.3906 97.2813,64.3906 Q97.6094,64.3906 97.8594,64.6563 Q98.125,64.9063 98.125,65.25 Q98.125,65.5938 97.7813,66 Q97.2813,66.5781 96.4844,66.9063 Q95.4063,67.3594 94.1094,67.3594 Q92.5938,67.3594 91.3906,66.7344 Q90.4063,66.2344 89.7188,65.1719 Q89.0313,64.0938 89.0313,62.8125 L89.0313,61.6563 Q89.0313,60.3281 89.6406,59.1875 Q90.2656,58.0313 91.3594,57.4219 Q92.4531,56.7969 93.6875,56.7969 Q94.4219,56.7969 95.0625,56.9688 Q95.7188,57.125 96.2656,57.4844 Z " fill="#000000"/><text fill="#000000" font-family="sans-serif" font-size="14" lengthAdjust="spacing" textLength="56" x="107.5" y="67.3379">Stigespill</text><line style="stroke:#A80036;stroke-width:1.0;" x1="79.5" x2="165.5" y1="77.6094" y2="77.6094"/><text fill="#000000" font-family="sans-serif" font-size="14" lengthAdjust="spacing" textLength="39" x="84.5" y="96.1426">vinner</text><line style="stroke:#A80036;stroke-width:1.0;" x1="79.5" x2="165.5" y1="103.2188" y2="103.2188"/></g><!--MD5=[d32527e80c9aede3ed19898949973df6]
class Brett--><g id="elem_Brett"><rect codeLine="9" fill="#FEFECE" filter="url(#frttv2gidaz2h)" height="48" id="Brett" style="stroke:#A80036;stroke-width:1.0;" width="62" x="173.5" y="207.1094"/><ellipse cx="188.5" cy="223.1094" fill="#ADD1B2" rx="11" ry="11" style="stroke:#A80036;stroke-width:1.0;"/><path d="M191.2656,218.9844 Q191.4219,218.7656 191.6094,218.6563 Q191.7969,218.5469 192.0156,218.5469 Q192.3906,218.5469 192.625,218.8125 Q192.8594,219.0625 192.8594,219.6719 L192.8594,221.125 Q192.8594,221.7344 192.625,222 Q192.3906,222.2656 192.0156,222.2656 Q191.6719,222.2656 191.4688,222.0625 Q191.2656,221.875 191.1563,221.3594 Q191.1094,221 190.9219,220.8125 Q190.5938,220.4375 189.9844,220.2188 Q189.375,220 188.75,220 Q187.9844,220 187.3438,220.3281 Q186.7188,220.6563 186.2188,221.4063 Q185.7344,222.1563 185.7344,223.1875 L185.7344,224.2813 Q185.7344,225.5156 186.625,226.3438 Q187.5156,227.1563 189.1094,227.1563 Q190.0469,227.1563 190.7031,226.9063 Q191.0938,226.75 191.5156,226.3125 Q191.7813,226.0469 191.9219,225.9688 Q192.0781,225.8906 192.2813,225.8906 Q192.6094,225.8906 192.8594,226.1563 Q193.125,226.4063 193.125,226.75 Q193.125,227.0938 192.7813,227.5 Q192.2813,228.0781 191.4844,228.4063 Q190.4063,228.8594 189.1094,228.8594 Q187.5938,228.8594 186.3906,228.2344 Q185.4063,227.7344 184.7188,226.6719 Q184.0313,225.5938 184.0313,224.3125 L184.0313,223.1563 Q184.0313,221.8281 184.6406,220.6875 Q185.2656,219.5313 186.3594,218.9219 Q187.4531,218.2969 188.6875,218.2969 Q189.4219,218.2969 190.0625,218.4688 Q190.7188,218.625 191.2656,218.9844 Z " fill="#000000"/><text fill="#000000" font-family="sans-serif" font-size="14" lengthAdjust="spacing" textLength="30" x="202.5" y="228.8379">Brett</text><line style="stroke:#A80036;stroke-width:1.0;" x1="174.5" x2="234.5" y1="239.1094" y2="239.1094"/><line style="stroke:#A80036;stroke-width:1.0;" x1="174.5" x2="234.5" y1="247.1094" y2="247.1094"/></g><!--MD5=[131d448e9c0afae1ae93db47c7e6485f]
class Terning--><g id="elem_Terning"><rect codeLine="10" fill="#FEFECE" filter="url(#frttv2gidaz2h)" height="65.6094" id="Terning" style="stroke:#A80036;stroke-width:1.0;" width="81" x="202" y="45.6094"/><ellipse cx="217" cy="61.6094" fill="#ADD1B2" rx="11" ry="11" style="stroke:#A80036;stroke-width:1.0;"/><path d="M219.7656,57.4844 Q219.9219,57.2656 220.1094,57.1563 Q220.2969,57.0469 220.5156,57.0469 Q220.8906,57.0469 221.125,57.3125 Q221.3594,57.5625 221.3594,58.1719 L221.3594,59.625 Q221.3594,60.2344 221.125,60.5 Q220.8906,60.7656 220.5156,60.7656 Q220.1719,60.7656 219.9688,60.5625 Q219.7656,60.375 219.6563,59.8594 Q219.6094,59.5 219.4219,59.3125 Q219.0938,58.9375 218.4844,58.7188 Q217.875,58.5 217.25,58.5 Q216.4844,58.5 215.8438,58.8281 Q215.2188,59.1563 214.7188,59.9063 Q214.2344,60.6563 214.2344,61.6875 L214.2344,62.7813 Q214.2344,64.0156 215.125,64.8438 Q216.0156,65.6563 217.6094,65.6563 Q218.5469,65.6563 219.2031,65.4063 Q219.5938,65.25 220.0156,64.8125 Q220.2813,64.5469 220.4219,64.4688 Q220.5781,64.3906 220.7813,64.3906 Q221.1094,64.3906 221.3594,64.6563 Q221.625,64.9063 221.625,65.25 Q221.625,65.5938 221.2813,66 Q220.7813,66.5781 219.9844,66.9063 Q218.9063,67.3594 217.6094,67.3594 Q216.0938,67.3594 214.8906,66.7344 Q213.9063,66.2344 213.2188,65.1719 Q212.5313,64.0938 212.5313,62.8125 L212.5313,61.6563 Q212.5313,60.3281 213.1406,59.1875 Q213.7656,58.0313 214.8594,57.4219 Q215.9531,56.7969 217.1875,56.7969 Q217.9219,56.7969 218.5625,56.9688 Q219.2188,57.125 219.7656,57.4844 Z " fill="#000000"/><text fill="#000000" font-family="sans-serif" font-size="14" lengthAdjust="spacing" textLength="49" x="231" y="67.3379">Terning</text><line style="stroke:#A80036;stroke-width:1.0;" x1="203" x2="282" y1="77.6094" y2="77.6094"/><text fill="#000000" font-family="sans-serif" font-size="14" lengthAdjust="spacing" textLength="31" x="208" y="96.1426">verdi</text><line style="stroke:#A80036;stroke-width:1.0;" x1="203" x2="282" y1="103.2188" y2="103.2188"/></g><!--MD5=[3628ea1b85af7540fd66607c2d6ca3f5]
class Rute--><g id="elem_Rute"><rect codeLine="13" fill="#FEFECE" filter="url(#frttv2gidaz2h)" height="65.6094" id="Rute" style="stroke:#A80036;stroke-width:1.0;" width="64" x="172.5" y="350.6094"/><ellipse cx="188.4" cy="366.6094" fill="#ADD1B2" rx="11" ry="11" style="stroke:#A80036;stroke-width:1.0;"/><path d="M191.1656,362.4844 Q191.3219,362.2656 191.5094,362.1563 Q191.6969,362.0469 191.9156,362.0469 Q192.2906,362.0469 192.525,362.3125 Q192.7594,362.5625 192.7594,363.1719 L192.7594,364.625 Q192.7594,365.2344 192.525,365.5 Q192.2906,365.7656 191.9156,365.7656 Q191.5719,365.7656 191.3688,365.5625 Q191.1656,365.375 191.0563,364.8594 Q191.0094,364.5 190.8219,364.3125 Q190.4938,363.9375 189.8844,363.7188 Q189.275,363.5 188.65,363.5 Q187.8844,363.5 187.2438,363.8281 Q186.6188,364.1563 186.1188,364.9063 Q185.6344,365.6563 185.6344,366.6875 L185.6344,367.7813 Q185.6344,369.0156 186.525,369.8438 Q187.4156,370.6563 189.0094,370.6563 Q189.9469,370.6563 190.6031,370.4063 Q190.9938,370.25 191.4156,369.8125 Q191.6813,369.5469 191.8219,369.4688 Q191.9781,369.3906 192.1813,369.3906 Q192.5094,369.3906 192.7594,369.6563 Q193.025,369.9063 193.025,370.25 Q193.025,370.5938 192.6813,371 Q192.1813,371.5781 191.3844,371.9063 Q190.3063,372.3594 189.0094,372.3594 Q187.4938,372.3594 186.2906,371.7344 Q185.3063,371.2344 184.6188,370.1719 Q183.9313,369.0938 183.9313,367.8125 L183.9313,366.6563 Q183.9313,365.3281 184.5406,364.1875 Q185.1656,363.0313 186.2594,362.4219 Q187.3531,361.7969 188.5875,361.7969 Q189.3219,361.7969 189.9625,361.9688 Q190.6188,362.125 191.1656,362.4844 Z " fill="#000000"/><text fill="#000000" font-family="sans-serif" font-size="14" lengthAdjust="spacing" textLength="30" x="202.6" y="372.3379">Rute</text><line style="stroke:#A80036;stroke-width:1.0;" x1="173.5" x2="235.5" y1="382.6094" y2="382.6094"/><text fill="#000000" font-family="sans-serif" font-size="14" lengthAdjust="spacing" textLength="52" x="178.5" y="401.1426">posisjon</text><line style="stroke:#A80036;stroke-width:1.0;" x1="173.5" x2="235.5" y1="408.2188" y2="408.2188"/></g><!--MD5=[683bfe32d50c0f782d5289cea81cd6be]
class Spiller--><g id="elem_Spiller"><rect codeLine="16" fill="#FEFECE" filter="url(#frttv2gidaz2h)" height="65.6094" id="Spiller" style="stroke:#A80036;stroke-width:1.0;" width="71" x="7" y="198.1094"/><ellipse cx="22" cy="214.1094" fill="#ADD1B2" rx="11" ry="11" style="stroke:#A80036;stroke-width:1.0;"/><path d="M24.7656,209.9844 Q24.9219,209.7656 25.1094,209.6563 Q25.2969,209.5469 25.5156,209.5469 Q25.8906,209.5469 26.125,209.8125 Q26.3594,210.0625 26.3594,210.6719 L26.3594,212.125 Q26.3594,212.7344 26.125,213 Q25.8906,213.2656 25.5156,213.2656 Q25.1719,213.2656 24.9688,213.0625 Q24.7656,212.875 24.6563,212.3594 Q24.6094,212 24.4219,211.8125 Q24.0938,211.4375 23.4844,211.2188 Q22.875,211 22.25,211 Q21.4844,211 20.8438,211.3281 Q20.2188,211.6563 19.7188,212.4063 Q19.2344,213.1563 19.2344,214.1875 L19.2344,215.2813 Q19.2344,216.5156 20.125,217.3438 Q21.0156,218.1563 22.6094,218.1563 Q23.5469,218.1563 24.2031,217.9063 Q24.5938,217.75 25.0156,217.3125 Q25.2813,217.0469 25.4219,216.9688 Q25.5781,216.8906 25.7813,216.8906 Q26.1094,216.8906 26.3594,217.1563 Q26.625,217.4063 26.625,217.75 Q26.625,218.0938 26.2813,218.5 Q25.7813,219.0781 24.9844,219.4063 Q23.9063,219.8594 22.6094,219.8594 Q21.0938,219.8594 19.8906,219.2344 Q18.9063,218.7344 18.2188,217.6719 Q17.5313,216.5938 17.5313,215.3125 L17.5313,214.1563 Q17.5313,212.8281 18.1406,211.6875 Q18.7656,210.5313 19.8594,209.9219 Q20.9531,209.2969 22.1875,209.2969 Q22.9219,209.2969 23.5625,209.4688 Q24.2188,209.625 24.7656,209.9844 Z " fill="#000000"/><text fill="#000000" font-family="sans-serif" font-size="14" lengthAdjust="spacing" textLength="39" x="36" y="219.8379">Spiller</text><line style="stroke:#A80036;stroke-width:1.0;" x1="8" x2="77" y1="230.1094" y2="230.1094"/><text fill="#000000" font-family="sans-serif" font-size="14" lengthAdjust="spacing" textLength="31" x="13" y="248.6426">navn</text><line style="stroke:#A80036;stroke-width:1.0;" x1="8" x2="77" y1="255.7188" y2="255.7188"/></g><!--MD5=[8ace0c6d8293b43664262972f22bc9a6]
class Brikke--><g id="elem_Brikke"><rect codeLine="19" fill="#FEFECE" filter="url(#frttv2gidaz2h)" height="65.6094" id="Brikke" style="stroke:#A80036;stroke-width:1.0;" width="71" x="19" y="350.6094"/><ellipse cx="34" cy="366.6094" fill="#ADD1B2" rx="11" ry="11" style="stroke:#A80036;stroke-width:1.0;"/><path d="M36.7656,362.4844 Q36.9219,362.2656 37.1094,362.1563 Q37.2969,362.0469 37.5156,362.0469 Q37.8906,362.0469 38.125,362.3125 Q38.3594,362.5625 38.3594,363.1719 L38.3594,364.625 Q38.3594,365.2344 38.125,365.5 Q37.8906,365.7656 37.5156,365.7656 Q37.1719,365.7656 36.9688,365.5625 Q36.7656,365.375 36.6563,364.8594 Q36.6094,364.5 36.4219,364.3125 Q36.0938,363.9375 35.4844,363.7188 Q34.875,363.5 34.25,363.5 Q33.4844,363.5 32.8438,363.8281 Q32.2188,364.1563 31.7188,364.9063 Q31.2344,365.6563 31.2344,366.6875 L31.2344,367.7813 Q31.2344,369.0156 32.125,369.8438 Q33.0156,370.6563 34.6094,370.6563 Q35.5469,370.6563 36.2031,370.4063 Q36.5938,370.25 37.0156,369.8125 Q37.2813,369.5469 37.4219,369.4688 Q37.5781,369.3906 37.7813,369.3906 Q38.1094,369.3906 38.3594,369.6563 Q38.625,369.9063 38.625,370.25 Q38.625,370.5938 38.2813,371 Q37.7813,371.5781 36.9844,371.9063 Q35.9063,372.3594 34.6094,372.3594 Q33.0938,372.3594 31.8906,371.7344 Q30.9063,371.2344 30.2188,370.1719 Q29.5313,369.0938 29.5313,367.8125 L29.5313,366.6563 Q29.5313,365.3281 30.1406,364.1875 Q30.7656,363.0313 31.8594,362.4219 Q32.9531,361.7969 34.1875,361.7969 Q34.9219,361.7969 35.5625,361.9688 Q36.2188,362.125 36.7656,362.4844 Z " fill="#000000"/><text fill="#000000" font-family="sans-serif" font-size="14" lengthAdjust="spacing" textLength="39" x="48" y="372.3379">Brikke</text><line style="stroke:#A80036;stroke-width:1.0;" x1="20" x2="89" y1="382.6094" y2="382.6094"/><text fill="#000000" font-family="sans-serif" font-size="14" lengthAdjust="spacing" textLength="33" x="25" y="401.1426">farge</text><line style="stroke:#A80036;stroke-width:1.0;" x1="20" x2="89" y1="408.2188" y2="408.2188"/></g><!--MD5=[fbcca8b8fc7591c8aba43f2bab0d3239]
class Stige--><g id="elem_Stige"><rect codeLine="22" fill="#FEFECE" filter="url(#frttv2gidaz2h)" height="83.2188" id="Stige" style="stroke:#A80036;stroke-width:1.0;" width="92" x="331.5" y="189.6094"/><ellipse cx="359.1" cy="205.6094" fill="#ADD1B2" rx="11" ry="11" style="stroke:#A80036;stroke-width:1.0;"/><path d="M361.8656,201.4844 Q362.0219,201.2656 362.2094,201.1563 Q362.3969,201.0469 362.6156,201.0469 Q362.9906,201.0469 363.225,201.3125 Q363.4594,201.5625 363.4594,202.1719 L363.4594,203.625 Q363.4594,204.2344 363.225,204.5 Q362.9906,204.7656 362.6156,204.7656 Q362.2719,204.7656 362.0688,204.5625 Q361.8656,204.375 361.7563,203.8594 Q361.7094,203.5 361.5219,203.3125 Q361.1938,202.9375 360.5844,202.7188 Q359.975,202.5 359.35,202.5 Q358.5844,202.5 357.9438,202.8281 Q357.3188,203.1563 356.8188,203.9063 Q356.3344,204.6563 356.3344,205.6875 L356.3344,206.7813 Q356.3344,208.0156 357.225,208.8438 Q358.1156,209.6563 359.7094,209.6563 Q360.6469,209.6563 361.3031,209.4063 Q361.6938,209.25 362.1156,208.8125 Q362.3813,208.5469 362.5219,208.4688 Q362.6781,208.3906 362.8813,208.3906 Q363.2094,208.3906 363.4594,208.6563 Q363.725,208.9063 363.725,209.25 Q363.725,209.5938 363.3813,210 Q362.8813,210.5781 362.0844,210.9063 Q361.0063,211.3594 359.7094,211.3594 Q358.1938,211.3594 356.9906,210.7344 Q356.0063,210.2344 355.3188,209.1719 Q354.6313,208.0938 354.6313,206.8125 L354.6313,205.6563 Q354.6313,204.3281 355.2406,203.1875 Q355.8656,202.0313 356.9594,201.4219 Q358.0531,200.7969 359.2875,200.7969 Q360.0219,200.7969 360.6625,200.9688 Q361.3188,201.125 361.8656,201.4844 Z " fill="#000000"/><text fill="#000000" font-family="sans-serif" font-size="14" lengthAdjust="spacing" textLength="32" x="375.9" y="211.3379">Stige</text><line style="stroke:#A80036;stroke-width:1.0;" x1="332.5" x2="422.5" y1="221.6094" y2="221.6094"/><text fill="#000000" font-family="sans-serif" font-size="14" lengthAdjust="spacing" textLength="80" x="337.5" y="240.1426">startposisjon</text><text fill="#000000" font-family="sans-serif" font-size="14" lengthAdjust="spacing" textLength="78" x="337.5" y="257.752">sluttposisjon</text><line style="stroke:#A80036;stroke-width:1.0;" x1="332.5" x2="422.5" y1="264.8281" y2="264.8281"/></g><!--MD5=[d02329db5535473d6783c28a2e6dac52]
link Brett to Rute--><g id="link_Brett_Rute"><path codeLine="27" d="M204.5,255.2994 C204.5,280.7694 204.5,321.8694 204.5,350.4494 " fill="none" id="Brett-Rute" style="stroke:#A80036;stroke-width:1.0;"/><text fill="#000000" font-family="sans-serif" font-size="13" lengthAdjust="spacing" textLength="59" x="205.5" y="317.1045">Inneholder</text><text fill="#000000" font-family="sans-serif" font-size="13" lengthAdjust="spacing" textLength="7" x="196.6469" y="276.6837">1</text><text fill="#000000" font-family="sans-serif" font-size="13" lengthAdjust="spacing" textLength="21" x="176.9219" y="339.5318">100</text></g><!--MD5=[ccf47d386937d244817224537245a3f9]
link Brett to Stige--><g id="link_Brett_Stige"><path codeLine="28" d="M235.83,231.1094 C262.51,231.1094 301.21,231.1094 331.42,231.1094 " fill="none" id="Brett-Stige" style="stroke:#A80036;stroke-width:1.0;"/><text fill="#000000" font-family="sans-serif" font-size="13" lengthAdjust="spacing" textLength="59" x="254" y="224.6045">Inneholder</text><text fill="#000000" font-family="sans-serif" font-size="13" lengthAdjust="spacing" textLength="7" x="243.6132" y="246.163">1</text><text fill="#000000" font-family="sans-serif" font-size="13" lengthAdjust="spacing" textLength="14" x="309.3301" y="245.7892">17</text></g><!--MD5=[912f918a48605004c5065c4b35122508]
link Stige to Rute--><g id="link_Stige_Rute"><path codeLine="29" d="M331.14,272.4394 C301.31,298.3894 263.31,331.4494 236.75,354.5594 " fill="none" id="Stige-Rute" style="stroke:#A80036;stroke-width:1.0;"/><text fill="#000000" font-family="sans-serif" font-size="13" lengthAdjust="spacing" textLength="22" x="285.5828" y="273.796">0..1</text><text fill="#000000" font-family="sans-serif" font-size="13" lengthAdjust="spacing" textLength="7" x="244.5703" y="344.031">2</text></g><!--MD5=[cd4207804f35cb078d3b66e5040fe919]
link Stigespill to Spiller--><g id="link_Stigespill_Spiller"><path codeLine="30" d="M105.34,111.8994 C91.84,137.2894 73.12,172.4994 59.63,197.8794 " fill="none" id="Stigespill-Spiller" style="stroke:#A80036;stroke-width:1.0;"/><text fill="#000000" font-family="sans-serif" font-size="13" lengthAdjust="spacing" textLength="36" x="88.5" y="156.1045">Spiller</text><text fill="#000000" font-family="sans-serif" font-size="13" lengthAdjust="spacing" textLength="7" x="85.9474" y="132.8154">1</text><text fill="#000000" font-family="sans-serif" font-size="13" lengthAdjust="spacing" textLength="22" x="38.8368" y="187.3304">2..4</text></g><!--MD5=[b180875ae2c8d6ddc7f7be19fe5769ae]
link Stigespill to Brett--><g id="link_Stigespill_Brett"><path codeLine="31" d="M140.09,111.8994 C155.62,140.3994 177.89,181.2694 191.76,206.7194 " fill="none" id="Stigespill-Brett" style="stroke:#A80036;stroke-width:1.0;"/><text fill="#000000" font-family="sans-serif" font-size="13" lengthAdjust="spacing" textLength="7" x="135.5998" y="132.8154">1</text><text fill="#000000" font-family="sans-serif" font-size="13" lengthAdjust="spacing" textLength="7" x="171.8265" y="196.3623">1</text></g><!--MD5=[af88335ed8fcc0e6fcbf92f4a5fec1dc]
link Stigespill to Terning--><g id="link_Stigespill_Terning"><path codeLine="32" d="M166.56,78.6094 C178.33,78.6094 190.1,78.6094 201.86,78.6094 " fill="none" id="Stigespill-Terning" style="stroke:#A80036;stroke-width:1.0;"/><text fill="#000000" font-family="sans-serif" font-size="13" lengthAdjust="spacing" textLength="7" x="174.4266" y="74.984">1</text><text fill="#000000" font-family="sans-serif" font-size="13" lengthAdjust="spacing" textLength="7" x="186.8689" y="93.4386">1</text></g><!--MD5=[ef330181d88a43b7e688d1950753eefa]
link Spiller to Brikke--><g id="link_Spiller_Brikke"><path codeLine="33" d="M45.07,264.3994 C47.1,289.7894 49.91,324.9994 51.93,350.3794 " fill="none" id="Spiller-Brikke" style="stroke:#A80036;stroke-width:1.0;"/><text fill="#000000" font-family="sans-serif" font-size="13" lengthAdjust="spacing" textLength="23" x="50.5" y="317.1045">Eier</text><text fill="#000000" font-family="sans-serif" font-size="13" lengthAdjust="spacing" textLength="7" x="37.9043" y="285.3154">1</text><text fill="#000000" font-family="sans-serif" font-size="13" lengthAdjust="spacing" textLength="7" x="43.735" y="339.8304">1</text></g><!--MD5=[0efda7cabe16d3e523dc4cbaeacccae2]
link Spiller to Brett--><g id="link_Spiller_Brett"><path codeLine="34" d="M78.05,231.1094 C106.55,231.1094 146.15,231.1094 173.4,231.1094 " fill="none" id="Spiller-Brett" style="stroke:#A80036;stroke-width:1.0;"/><text fill="#000000" font-family="sans-serif" font-size="13" lengthAdjust="spacing" textLength="59" x="96.25" y="224.6045">Kan bruke</text></g><!--MD5=[9c4de56bde29491c5de84a438c649977]
link Brikke to Rute--><g id="link_Brikke_Rute"><path codeLine="35" d="M90.05,383.6094 C115,383.6094 148.09,383.6094 172.28,383.6094 " fill="none" id="Brikke-Rute" style="stroke:#A80036;stroke-width:1.0;"/><text fill="#000000" font-family="sans-serif" font-size="13" lengthAdjust="spacing" textLength="42" x="110.25" y="377.1045">St책r p책</text><text fill="#000000" font-family="sans-serif" font-size="13" lengthAdjust="spacing" textLength="22" x="98.0508" y="398.5433">0..4</text><text fill="#000000" font-family="sans-serif" font-size="13" lengthAdjust="spacing" textLength="7" x="157.5879" y="379.6979">1</text></g><!--MD5=[db0c6b9109a30f8f19508cb81f924e69]
@startuml Domenemodell

skin rose

title Stigespill - Domenemodell

class Stigespill{
	vinner
}
class Brett{}
class Terning{
	verdi
}
class Rute{
	posisjon
}
class Spiller{
	navn
}
class Brikke{
	farge
}
class Stige{
	startposisjon
	sluttposisjon
}

Brett "1" -down- "100 " Rute: Inneholder
Brett "1   " -right- " 17" Stige: Inneholder
Stige "0..1    " -down- "2" Rute
Stigespill "1  " -down- "2..4" Spiller: Spiller
Stigespill "1" -down- "1  " Brett
Stigespill "1   " -right- "   1" Terning
Spiller "1" -down- "1" Brikke: Eier
Spiller -right- Brett: Kan bruke
Brikke "0..4" -right- "   1" Rute: St책r p책


@enduml

PlantUML version 1.2022.7(Mon Aug 22 19:01:30 CEST 2022)
(GPL source distribution)
Java Runtime: OpenJDK Runtime Environment
JVM: OpenJDK 64-Bit Server VM
Default Encoding: UTF-8
Language: en
Country: GB
--></g></svg>