<?xml version="1.0" encoding="UTF-8" standalone="no"?><svg xmlns="http://www.w3.org/2000/svg" xmlns:xlink="http://www.w3.org/1999/xlink" contentStyleType="text/css" height="623px" preserveAspectRatio="none" style="width:599px;height:623px;background:#FFFFFF;" version="1.1" viewBox="0 0 599 623" width="599px" zoomAndPan="magnify"><defs><filter height="300%" id="fm6y386iwj7pb" width="300%" x="-1" y="-1"><feGaussianBlur result="blurOut" stdDeviation="2.0"/><feColorMatrix in="blurOut" result="blurOut2" type="matrix" values="0 0 0 0 0 0 0 0 0 0 0 0 0 0 0 0 0 0 .4 0"/><feOffset dx="4.0" dy="4.0" in="blurOut2" result="blurOut3"/><feBlend in="SourceGraphic" in2="blurOut3" mode="normal"/></filter></defs><g><rect fill="none" height="27.6094" id="_title" style="stroke:none;stroke-width:1.0;" width="196" x="194.5" y="5"/><text fill="#000000" font-family="sans-serif" font-size="14" font-weight="bold" lengthAdjust="spacing" textLength="186" x="199.5" y="24.5332">Stigespill - Klasse Diagram</text><!--MD5=[84cf3236217fe7cb7b077db6a09d1cf1]
class Stigespill--><g id="elem_Stigespill"><rect codeLine="6" fill="#FEFECE" filter="url(#fm6y386iwj7pb)" height="188.875" id="Stigespill" style="stroke:#A80036;stroke-width:1.0;" width="164" x="96" y="45.6094"/><ellipse cx="145.75" cy="61.6094" fill="#ADD1B2" rx="11" ry="11" style="stroke:#A80036;stroke-width:1.0;"/><path d="M148.5156,57.4844 Q148.6719,57.2656 148.8594,57.1563 Q149.0469,57.0469 149.2656,57.0469 Q149.6406,57.0469 149.875,57.3125 Q150.1094,57.5625 150.1094,58.1719 L150.1094,59.625 Q150.1094,60.2344 149.875,60.5 Q149.6406,60.7656 149.2656,60.7656 Q148.9219,60.7656 148.7188,60.5625 Q148.5156,60.375 148.4063,59.8594 Q148.3594,59.5 148.1719,59.3125 Q147.8438,58.9375 147.2344,58.7188 Q146.625,58.5 146,58.5 Q145.2344,58.5 144.5938,58.8281 Q143.9688,59.1563 143.4688,59.9063 Q142.9844,60.6563 142.9844,61.6875 L142.9844,62.7813 Q142.9844,64.0156 143.875,64.8438 Q144.7656,65.6563 146.3594,65.6563 Q147.2969,65.6563 147.9531,65.4063 Q148.3438,65.25 148.7656,64.8125 Q149.0313,64.5469 149.1719,64.4688 Q149.3281,64.3906 149.5313,64.3906 Q149.8594,64.3906 150.1094,64.6563 Q150.375,64.9063 150.375,65.25 Q150.375,65.5938 150.0313,66 Q149.5313,66.5781 148.7344,66.9063 Q147.6563,67.3594 146.3594,67.3594 Q144.8438,67.3594 143.6406,66.7344 Q142.6563,66.2344 141.9688,65.1719 Q141.2813,64.0938 141.2813,62.8125 L141.2813,61.6563 Q141.2813,60.3281 141.8906,59.1875 Q142.5156,58.0313 143.6094,57.4219 Q144.7031,56.7969 145.9375,56.7969 Q146.6719,56.7969 147.3125,56.9688 Q147.9688,57.125 148.5156,57.4844 Z " fill="#000000"/><text fill="#000000" font-family="sans-serif" font-size="14" lengthAdjust="spacing" textLength="56" x="166.25" y="67.3379">Stigespill</text><line style="stroke:#A80036;stroke-width:1.0;" x1="97" x2="259" y1="77.6094" y2="77.6094"/><rect fill="none" height="6" style="stroke:#C82930;stroke-width:1.0;" width="6" x="104" y="88.9141"/><text fill="#000000" font-family="sans-serif" font-size="14" lengthAdjust="spacing" textLength="110" x="116" y="96.1426">Terning : Terning</text><rect fill="none" height="6" style="stroke:#C82930;stroke-width:1.0;" width="6" x="104" y="106.5234"/><text fill="#000000" font-family="sans-serif" font-size="14" lengthAdjust="spacing" textLength="72" x="116" y="113.752">Brett : Brett</text><rect fill="none" height="6" style="stroke:#C82930;stroke-width:1.0;" width="6" x="104" y="124.1328"/><text fill="#000000" font-family="sans-serif" font-size="14" lengthAdjust="spacing" textLength="136" x="116" y="131.3613">Spillere : List&lt;Spiller&gt;</text><line style="stroke:#A80036;stroke-width:1.0;" x1="97" x2="259" y1="138.4375" y2="138.4375"/><ellipse cx="107" cy="152.7422" fill="#84BE84" rx="3" ry="3" style="stroke:#038048;stroke-width:1.0;"/><text fill="#000000" font-family="sans-serif" font-size="14" lengthAdjust="spacing" textLength="54" x="116" y="156.9707">initSpill()</text><ellipse cx="107" cy="170.3516" fill="#84BE84" rx="3" ry="3" style="stroke:#038048;stroke-width:1.0;"/><text fill="#000000" font-family="sans-serif" font-size="14" lengthAdjust="spacing" textLength="34" x="116" y="174.5801">spill()</text><rect fill="#F24D5C" height="6" style="stroke:#C82930;stroke-width:1.0;" width="6" x="104" y="184.9609"/><text fill="#000000" font-family="sans-serif" font-size="14" lengthAdjust="spacing" textLength="138" x="116" y="192.1895">sjekkSeier() : boolean</text><rect fill="#F24D5C" height="6" style="stroke:#C82930;stroke-width:1.0;" width="6" x="104" y="202.5703"/><text fill="#000000" font-family="sans-serif" font-size="14" lengthAdjust="spacing" textLength="76" x="116" y="209.7988">spillRunde()</text><rect fill="#F24D5C" height="6" style="stroke:#C82930;stroke-width:1.0;" width="6" x="104" y="220.1797"/><text fill="#000000" font-family="sans-serif" font-size="14" lengthAdjust="spacing" textLength="85" x="116" y="227.4082">hentSpillere()</text></g><!--MD5=[d32527e80c9aede3ed19898949973df6]
class Brett--><g id="elem_Brett"><rect codeLine="16" fill="#FEFECE" filter="url(#fm6y386iwj7pb)" height="136.0469" id="Brett" style="stroke:#A80036;stroke-width:1.0;" width="149" x="218.5" y="312.6094"/><ellipse cx="273.75" cy="328.6094" fill="#ADD1B2" rx="11" ry="11" style="stroke:#A80036;stroke-width:1.0;"/><path d="M276.5156,324.4844 Q276.6719,324.2656 276.8594,324.1563 Q277.0469,324.0469 277.2656,324.0469 Q277.6406,324.0469 277.875,324.3125 Q278.1094,324.5625 278.1094,325.1719 L278.1094,326.625 Q278.1094,327.2344 277.875,327.5 Q277.6406,327.7656 277.2656,327.7656 Q276.9219,327.7656 276.7188,327.5625 Q276.5156,327.375 276.4063,326.8594 Q276.3594,326.5 276.1719,326.3125 Q275.8438,325.9375 275.2344,325.7188 Q274.625,325.5 274,325.5 Q273.2344,325.5 272.5938,325.8281 Q271.9688,326.1563 271.4688,326.9063 Q270.9844,327.6563 270.9844,328.6875 L270.9844,329.7813 Q270.9844,331.0156 271.875,331.8438 Q272.7656,332.6563 274.3594,332.6563 Q275.2969,332.6563 275.9531,332.4063 Q276.3438,332.25 276.7656,331.8125 Q277.0313,331.5469 277.1719,331.4688 Q277.3281,331.3906 277.5313,331.3906 Q277.8594,331.3906 278.1094,331.6563 Q278.375,331.9063 278.375,332.25 Q278.375,332.5938 278.0313,333 Q277.5313,333.5781 276.7344,333.9063 Q275.6563,334.3594 274.3594,334.3594 Q272.8438,334.3594 271.6406,333.7344 Q270.6563,333.2344 269.9688,332.1719 Q269.2813,331.0938 269.2813,329.8125 L269.2813,328.6563 Q269.2813,327.3281 269.8906,326.1875 Q270.5156,325.0313 271.6094,324.4219 Q272.7031,323.7969 273.9375,323.7969 Q274.6719,323.7969 275.3125,323.9688 Q275.9688,324.125 276.5156,324.4844 Z " fill="#000000"/><text fill="#000000" font-family="sans-serif" font-size="14" lengthAdjust="spacing" textLength="30" x="294.25" y="334.3379">Brett</text><line style="stroke:#A80036;stroke-width:1.0;" x1="219.5" x2="366.5" y1="344.6094" y2="344.6094"/><rect fill="none" height="6" style="stroke:#C82930;stroke-width:1.0;" width="6" x="226.5" y="355.9141"/><text fill="#000000" font-family="sans-serif" font-size="14" lengthAdjust="spacing" textLength="115" x="238.5" y="363.1426">Ruter : List&lt;Rute&gt;</text><rect fill="none" height="6" style="stroke:#C82930;stroke-width:1.0;" width="6" x="226.5" y="373.5234"/><text fill="#000000" font-family="sans-serif" font-size="14" lengthAdjust="spacing" textLength="119" x="238.5" y="380.752">Stiger : List&lt;Stige&gt;</text><ellipse cx="229.5" cy="394.1328" fill="none" rx="3" ry="3" style="stroke:#038048;stroke-width:1.0;"/><text fill="#000000" font-family="sans-serif" font-size="14" lengthAdjust="spacing" textLength="123" x="238.5" y="398.3613">startPosisjon : Rute</text><line style="stroke:#A80036;stroke-width:1.0;" x1="219.5" x2="366.5" y1="405.4375" y2="405.4375"/><ellipse cx="229.5" cy="419.7422" fill="#84BE84" rx="3" ry="3" style="stroke:#038048;stroke-width:1.0;"/><text fill="#000000" font-family="sans-serif" font-size="14" lengthAdjust="spacing" textLength="105" x="238.5" y="423.9707">finnRute() : Rute</text><ellipse cx="229.5" cy="437.3516" fill="#84BE84" rx="3" ry="3" style="stroke:#038048;stroke-width:1.0;"/><text fill="#000000" font-family="sans-serif" font-size="14" lengthAdjust="spacing" textLength="105" x="238.5" y="441.5801">harStige() : Rute</text></g><!--MD5=[3628ea1b85af7540fd66607c2d6ca3f5]
class Rute--><g id="elem_Rute"><rect codeLine="23" fill="#FEFECE" filter="url(#fm6y386iwj7pb)" height="65.6094" id="Rute" style="stroke:#A80036;stroke-width:1.0;" width="135" x="225.5" y="535.1094"/><ellipse cx="273.75" cy="551.1094" fill="#ADD1B2" rx="11" ry="11" style="stroke:#A80036;stroke-width:1.0;"/><path d="M276.5156,546.9844 Q276.6719,546.7656 276.8594,546.6563 Q277.0469,546.5469 277.2656,546.5469 Q277.6406,546.5469 277.875,546.8125 Q278.1094,547.0625 278.1094,547.6719 L278.1094,549.125 Q278.1094,549.7344 277.875,550 Q277.6406,550.2656 277.2656,550.2656 Q276.9219,550.2656 276.7188,550.0625 Q276.5156,549.875 276.4063,549.3594 Q276.3594,549 276.1719,548.8125 Q275.8438,548.4375 275.2344,548.2188 Q274.625,548 274,548 Q273.2344,548 272.5938,548.3281 Q271.9688,548.6563 271.4688,549.4063 Q270.9844,550.1563 270.9844,551.1875 L270.9844,552.2813 Q270.9844,553.5156 271.875,554.3438 Q272.7656,555.1563 274.3594,555.1563 Q275.2969,555.1563 275.9531,554.9063 Q276.3438,554.75 276.7656,554.3125 Q277.0313,554.0469 277.1719,553.9688 Q277.3281,553.8906 277.5313,553.8906 Q277.8594,553.8906 278.1094,554.1563 Q278.375,554.4063 278.375,554.75 Q278.375,555.0938 278.0313,555.5 Q277.5313,556.0781 276.7344,556.4063 Q275.6563,556.8594 274.3594,556.8594 Q272.8438,556.8594 271.6406,556.2344 Q270.6563,555.7344 269.9688,554.6719 Q269.2813,553.5938 269.2813,552.3125 L269.2813,551.1563 Q269.2813,549.8281 269.8906,548.6875 Q270.5156,547.5313 271.6094,546.9219 Q272.7031,546.2969 273.9375,546.2969 Q274.6719,546.2969 275.3125,546.4688 Q275.9688,546.625 276.5156,546.9844 Z " fill="#000000"/><text fill="#000000" font-family="sans-serif" font-size="14" lengthAdjust="spacing" textLength="30" x="294.25" y="556.8379">Rute</text><line style="stroke:#A80036;stroke-width:1.0;" x1="226.5" x2="359.5" y1="567.1094" y2="567.1094"/><ellipse cx="236.5" cy="581.4141" fill="none" rx="3" ry="3" style="stroke:#038048;stroke-width:1.0;"/><text fill="#000000" font-family="sans-serif" font-size="14" lengthAdjust="spacing" textLength="109" x="245.5" y="585.6426">Posisjon : Integer</text><line style="stroke:#A80036;stroke-width:1.0;" x1="226.5" x2="359.5" y1="592.7188" y2="592.7188"/></g><!--MD5=[fbcca8b8fc7591c8aba43f2bab0d3239]
class Stige--><g id="elem_Stige"><rect codeLine="26" fill="#FEFECE" filter="url(#fm6y386iwj7pb)" height="83.2188" id="Stige" style="stroke:#A80036;stroke-width:1.0;" width="122" x="463" y="339.1094"/><ellipse cx="504.1" cy="355.1094" fill="#ADD1B2" rx="11" ry="11" style="stroke:#A80036;stroke-width:1.0;"/><path d="M506.8656,350.9844 Q507.0219,350.7656 507.2094,350.6563 Q507.3969,350.5469 507.6156,350.5469 Q507.9906,350.5469 508.225,350.8125 Q508.4594,351.0625 508.4594,351.6719 L508.4594,353.125 Q508.4594,353.7344 508.225,354 Q507.9906,354.2656 507.6156,354.2656 Q507.2719,354.2656 507.0688,354.0625 Q506.8656,353.875 506.7563,353.3594 Q506.7094,353 506.5219,352.8125 Q506.1938,352.4375 505.5844,352.2188 Q504.975,352 504.35,352 Q503.5844,352 502.9438,352.3281 Q502.3188,352.6563 501.8188,353.4063 Q501.3344,354.1563 501.3344,355.1875 L501.3344,356.2813 Q501.3344,357.5156 502.225,358.3438 Q503.1156,359.1563 504.7094,359.1563 Q505.6469,359.1563 506.3031,358.9063 Q506.6938,358.75 507.1156,358.3125 Q507.3813,358.0469 507.5219,357.9688 Q507.6781,357.8906 507.8813,357.8906 Q508.2094,357.8906 508.4594,358.1563 Q508.725,358.4063 508.725,358.75 Q508.725,359.0938 508.3813,359.5 Q507.8813,360.0781 507.0844,360.4063 Q506.0063,360.8594 504.7094,360.8594 Q503.1938,360.8594 501.9906,360.2344 Q501.0063,359.7344 500.3188,358.6719 Q499.6313,357.5938 499.6313,356.3125 L499.6313,355.1563 Q499.6313,353.8281 500.2406,352.6875 Q500.8656,351.5313 501.9594,350.9219 Q503.0531,350.2969 504.2875,350.2969 Q505.0219,350.2969 505.6625,350.4688 Q506.3188,350.625 506.8656,350.9844 Z " fill="#000000"/><text fill="#000000" font-family="sans-serif" font-size="14" lengthAdjust="spacing" textLength="32" x="523.9" y="360.8379">Stige</text><line style="stroke:#A80036;stroke-width:1.0;" x1="464" x2="584" y1="371.1094" y2="371.1094"/><ellipse cx="474" cy="385.4141" fill="none" rx="3" ry="3" style="stroke:#038048;stroke-width:1.0;"/><text fill="#000000" font-family="sans-serif" font-size="14" lengthAdjust="spacing" textLength="96" x="483" y="389.6426">StartPos : Rute</text><ellipse cx="474" cy="403.0234" fill="none" rx="3" ry="3" style="stroke:#038048;stroke-width:1.0;"/><text fill="#000000" font-family="sans-serif" font-size="14" lengthAdjust="spacing" textLength="94" x="483" y="407.252">SluttPos : Rute</text><line style="stroke:#A80036;stroke-width:1.0;" x1="464" x2="584" y1="414.3281" y2="414.3281"/></g><!--MD5=[683bfe32d50c0f782d5289cea81cd6be]
class Spiller--><g id="elem_Spiller"><rect codeLine="30" fill="#FEFECE" filter="url(#fm6y386iwj7pb)" height="100.8281" id="Spiller" style="stroke:#A80036;stroke-width:1.0;" width="116" x="7" y="330.1094"/><ellipse cx="42.25" cy="346.1094" fill="#ADD1B2" rx="11" ry="11" style="stroke:#A80036;stroke-width:1.0;"/><path d="M45.0156,341.9844 Q45.1719,341.7656 45.3594,341.6563 Q45.5469,341.5469 45.7656,341.5469 Q46.1406,341.5469 46.375,341.8125 Q46.6094,342.0625 46.6094,342.6719 L46.6094,344.125 Q46.6094,344.7344 46.375,345 Q46.1406,345.2656 45.7656,345.2656 Q45.4219,345.2656 45.2188,345.0625 Q45.0156,344.875 44.9063,344.3594 Q44.8594,344 44.6719,343.8125 Q44.3438,343.4375 43.7344,343.2188 Q43.125,343 42.5,343 Q41.7344,343 41.0938,343.3281 Q40.4688,343.6563 39.9688,344.4063 Q39.4844,345.1563 39.4844,346.1875 L39.4844,347.2813 Q39.4844,348.5156 40.375,349.3438 Q41.2656,350.1563 42.8594,350.1563 Q43.7969,350.1563 44.4531,349.9063 Q44.8438,349.75 45.2656,349.3125 Q45.5313,349.0469 45.6719,348.9688 Q45.8281,348.8906 46.0313,348.8906 Q46.3594,348.8906 46.6094,349.1563 Q46.875,349.4063 46.875,349.75 Q46.875,350.0938 46.5313,350.5 Q46.0313,351.0781 45.2344,351.4063 Q44.1563,351.8594 42.8594,351.8594 Q41.3438,351.8594 40.1406,351.2344 Q39.1563,350.7344 38.4688,349.6719 Q37.7813,348.5938 37.7813,347.3125 L37.7813,346.1563 Q37.7813,344.8281 38.3906,343.6875 Q39.0156,342.5313 40.1094,341.9219 Q41.2031,341.2969 42.4375,341.2969 Q43.1719,341.2969 43.8125,341.4688 Q44.4688,341.625 45.0156,341.9844 Z " fill="#000000"/><text fill="#000000" font-family="sans-serif" font-size="14" lengthAdjust="spacing" textLength="39" x="60.75" y="351.8379">Spiller</text><line style="stroke:#A80036;stroke-width:1.0;" x1="8" x2="122" y1="362.1094" y2="362.1094"/><ellipse cx="18" cy="376.4141" fill="none" rx="3" ry="3" style="stroke:#038048;stroke-width:1.0;"/><text fill="#000000" font-family="sans-serif" font-size="14" lengthAdjust="spacing" textLength="81" x="27" y="380.6426">Navn : String</text><ellipse cx="18" cy="394.0234" fill="none" rx="3" ry="3" style="stroke:#038048;stroke-width:1.0;"/><text fill="#000000" font-family="sans-serif" font-size="14" lengthAdjust="spacing" textLength="90" x="27" y="398.252">Brikke : Brikke</text><line style="stroke:#A80036;stroke-width:1.0;" x1="8" x2="122" y1="405.3281" y2="405.3281"/><ellipse cx="18" cy="419.6328" fill="#84BE84" rx="3" ry="3" style="stroke:#038048;stroke-width:1.0;"/><text fill="#000000" font-family="sans-serif" font-size="14" lengthAdjust="spacing" textLength="70" x="27" y="423.8613">spillTrekk()</text></g><!--MD5=[8ace0c6d8293b43664262972f22bc9a6]
class Brikke--><g id="elem_Brikke"><rect codeLine="35" fill="#FEFECE" filter="url(#fm6y386iwj7pb)" height="83.2188" id="Brikke" style="stroke:#A80036;stroke-width:1.0;" width="121" x="20.5" y="526.6094"/><ellipse cx="58" cy="542.6094" fill="#ADD1B2" rx="11" ry="11" style="stroke:#A80036;stroke-width:1.0;"/><path d="M60.7656,538.4844 Q60.9219,538.2656 61.1094,538.1563 Q61.2969,538.0469 61.5156,538.0469 Q61.8906,538.0469 62.125,538.3125 Q62.3594,538.5625 62.3594,539.1719 L62.3594,540.625 Q62.3594,541.2344 62.125,541.5 Q61.8906,541.7656 61.5156,541.7656 Q61.1719,541.7656 60.9688,541.5625 Q60.7656,541.375 60.6563,540.8594 Q60.6094,540.5 60.4219,540.3125 Q60.0938,539.9375 59.4844,539.7188 Q58.875,539.5 58.25,539.5 Q57.4844,539.5 56.8438,539.8281 Q56.2188,540.1563 55.7188,540.9063 Q55.2344,541.6563 55.2344,542.6875 L55.2344,543.7813 Q55.2344,545.0156 56.125,545.8438 Q57.0156,546.6563 58.6094,546.6563 Q59.5469,546.6563 60.2031,546.4063 Q60.5938,546.25 61.0156,545.8125 Q61.2813,545.5469 61.4219,545.4688 Q61.5781,545.3906 61.7813,545.3906 Q62.1094,545.3906 62.3594,545.6563 Q62.625,545.9063 62.625,546.25 Q62.625,546.5938 62.2813,547 Q61.7813,547.5781 60.9844,547.9063 Q59.9063,548.3594 58.6094,548.3594 Q57.0938,548.3594 55.8906,547.7344 Q54.9063,547.2344 54.2188,546.1719 Q53.5313,545.0938 53.5313,543.8125 L53.5313,542.6563 Q53.5313,541.3281 54.1406,540.1875 Q54.7656,539.0313 55.8594,538.4219 Q56.9531,537.7969 58.1875,537.7969 Q58.9219,537.7969 59.5625,537.9688 Q60.2188,538.125 60.7656,538.4844 Z " fill="#000000"/><text fill="#000000" font-family="sans-serif" font-size="14" lengthAdjust="spacing" textLength="39" x="77" y="548.3379">Brikke</text><line style="stroke:#A80036;stroke-width:1.0;" x1="21.5" x2="140.5" y1="558.6094" y2="558.6094"/><ellipse cx="31.5" cy="572.9141" fill="none" rx="3" ry="3" style="stroke:#038048;stroke-width:1.0;"/><text fill="#000000" font-family="sans-serif" font-size="14" lengthAdjust="spacing" textLength="87" x="40.5" y="577.1426">Farge : String</text><ellipse cx="31.5" cy="590.5234" fill="none" rx="3" ry="3" style="stroke:#038048;stroke-width:1.0;"/><text fill="#000000" font-family="sans-serif" font-size="14" lengthAdjust="spacing" textLength="95" x="40.5" y="594.752">Posisjon : Rute</text><line style="stroke:#A80036;stroke-width:1.0;" x1="21.5" x2="140.5" y1="601.8281" y2="601.8281"/></g><!--MD5=[131d448e9c0afae1ae93db47c7e6485f]
class Terning--><g id="elem_Terning"><rect codeLine="39" fill="#FEFECE" filter="url(#fm6y386iwj7pb)" height="65.6094" id="Terning" style="stroke:#A80036;stroke-width:1.0;" width="115" x="295.5" y="107.1094"/><ellipse cx="325.8" cy="123.1094" fill="#ADD1B2" rx="11" ry="11" style="stroke:#A80036;stroke-width:1.0;"/><path d="M328.5656,118.9844 Q328.7219,118.7656 328.9094,118.6563 Q329.0969,118.5469 329.3156,118.5469 Q329.6906,118.5469 329.925,118.8125 Q330.1594,119.0625 330.1594,119.6719 L330.1594,121.125 Q330.1594,121.7344 329.925,122 Q329.6906,122.2656 329.3156,122.2656 Q328.9719,122.2656 328.7688,122.0625 Q328.5656,121.875 328.4563,121.3594 Q328.4094,121 328.2219,120.8125 Q327.8938,120.4375 327.2844,120.2188 Q326.675,120 326.05,120 Q325.2844,120 324.6438,120.3281 Q324.0188,120.6563 323.5188,121.4063 Q323.0344,122.1563 323.0344,123.1875 L323.0344,124.2813 Q323.0344,125.5156 323.925,126.3438 Q324.8156,127.1563 326.4094,127.1563 Q327.3469,127.1563 328.0031,126.9063 Q328.3938,126.75 328.8156,126.3125 Q329.0813,126.0469 329.2219,125.9688 Q329.3781,125.8906 329.5813,125.8906 Q329.9094,125.8906 330.1594,126.1563 Q330.425,126.4063 330.425,126.75 Q330.425,127.0938 330.0813,127.5 Q329.5813,128.0781 328.7844,128.4063 Q327.7063,128.8594 326.4094,128.8594 Q324.8938,128.8594 323.6906,128.2344 Q322.7063,127.7344 322.0188,126.6719 Q321.3313,125.5938 321.3313,124.3125 L321.3313,123.1563 Q321.3313,121.8281 321.9406,120.6875 Q322.5656,119.5313 323.6594,118.9219 Q324.7531,118.2969 325.9875,118.2969 Q326.7219,118.2969 327.3625,118.4688 Q328.0188,118.625 328.5656,118.9844 Z " fill="#000000"/><text fill="#000000" font-family="sans-serif" font-size="14" lengthAdjust="spacing" textLength="49" x="343.2" y="128.8379">Terning</text><line style="stroke:#A80036;stroke-width:1.0;" x1="296.5" x2="409.5" y1="139.1094" y2="139.1094"/><line style="stroke:#A80036;stroke-width:1.0;" x1="296.5" x2="409.5" y1="147.1094" y2="147.1094"/><ellipse cx="306.5" cy="161.4141" fill="#84BE84" rx="3" ry="3" style="stroke:#038048;stroke-width:1.0;"/><text fill="#000000" font-family="sans-serif" font-size="14" lengthAdjust="spacing" textLength="89" x="315.5" y="165.6426">Trill() : Integer</text></g><!--MD5=[e9ea72aeeac63a4aea11643a6e6700ea]
reverse link Brett to Rute--><g id="link_Brett_Rute"><path codeLine="43" d="M293,462.1094 C293,487.7894 293,514.7394 293,534.9094 " fill="none" id="Brett-backto-Rute" style="stroke:#A80036;stroke-width:1.0;"/><polygon fill="#A80036" points="293,448.8394,289,454.8394,293,460.8394,297,454.8394,293,448.8394" style="stroke:#A80036;stroke-width:1.0;"/><text fill="#000000" font-family="sans-serif" font-size="13" lengthAdjust="spacing" textLength="59" x="294" y="493.1045">Inneholder</text><text fill="#000000" font-family="sans-serif" font-size="13" lengthAdjust="spacing" textLength="7" x="285.6391" y="470.2114">1</text><text fill="#000000" font-family="sans-serif" font-size="13" lengthAdjust="spacing" textLength="21" x="265.5391" y="524.3663">100</text></g><!--MD5=[d814f223e67294b6652f8119a76b22df]
reverse link Brett to Stige--><g id="link_Brett_Stige"><path codeLine="44" d="M380.87,380.6094 C408.16,380.6094 437.63,380.6094 462.7,380.6094 " fill="none" id="Brett-backto-Stige" style="stroke:#A80036;stroke-width:1.0;"/><polygon fill="#A80036" points="367.68,380.6094,373.68,384.6094,379.68,380.6094,373.68,376.6094,367.68,380.6094" style="stroke:#A80036;stroke-width:1.0;"/><text fill="#000000" font-family="sans-serif" font-size="13" lengthAdjust="spacing" textLength="59" x="385.75" y="374.1045">Inneholder</text><text fill="#000000" font-family="sans-serif" font-size="13" lengthAdjust="spacing" textLength="7" x="375.4403" y="394.856">1</text><text fill="#000000" font-family="sans-serif" font-size="13" lengthAdjust="spacing" textLength="14" x="441.0109" y="394.9868">17</text></g><!--MD5=[912f918a48605004c5065c4b35122508]
link Stige to Rute--><g id="link_Stige_Rute"><path codeLine="45" d="M473.31,422.3194 C434.7,453.3194 381.82,495.7894 343.31,526.7094 " fill="none" id="Stige-to-Rute" style="stroke:#A80036;stroke-width:1.0;"/><polygon fill="none" points="332.85,535.1094,340.0329,534.4724,342.2076,527.597,335.0246,528.234,332.85,535.1094" style="stroke:#A80036;stroke-width:1.0;"/><text fill="#000000" font-family="sans-serif" font-size="13" lengthAdjust="spacing" textLength="22" x="424.2032" y="443.7476">0..1</text><text fill="#000000" font-family="sans-serif" font-size="13" lengthAdjust="spacing" textLength="7" x="333.3472" y="524.2248">2</text></g><!--MD5=[e2b5cdce26d2fb83b0b004aaf9f4b956]
reverse link Stigespill to Spiller--><g id="link_Stigespill_Spiller"><path codeLine="46" d="M128.02,246.5894 C114.29,275.5894 100.03,305.6794 88.55,329.8994 " fill="none" id="Stigespill-backto-Spiller" style="stroke:#A80036;stroke-width:1.0;"/><polygon fill="none" points="133.66,234.6894,127.4779,238.4017,128.5269,245.5361,134.709,241.8238,133.66,234.6894" style="stroke:#A80036;stroke-width:1.0;"/><text fill="#000000" font-family="sans-serif" font-size="13" lengthAdjust="spacing" textLength="36" x="120" y="279.1045">Spiller</text><text fill="#000000" font-family="sans-serif" font-size="13" lengthAdjust="spacing" textLength="7" x="114.691" y="256.0565">1</text><text fill="#000000" font-family="sans-serif" font-size="13" lengthAdjust="spacing" textLength="22" x="68.3148" y="319.1752">2..4</text></g><!--MD5=[d58f4cb61de1c5d3d2f401cfec5b4769]
reverse link Stigespill to Brett--><g id="link_Stigespill_Brett"><path codeLine="47" d="M228.89,246.6594 C239.67,269.0094 250.76,292.0094 260.62,312.4594 " fill="none" id="Stigespill-backto-Brett" style="stroke:#A80036;stroke-width:1.0;"/><polygon fill="#A80036" points="223.12,234.6894,222.1202,241.8308,228.3278,245.5004,229.3276,238.359,223.12,234.6894" style="stroke:#A80036;stroke-width:1.0;"/><text fill="#000000" font-family="sans-serif" font-size="13" lengthAdjust="spacing" textLength="7" x="219.3065" y="256.0565">1</text><text fill="#000000" font-family="sans-serif" font-size="13" lengthAdjust="spacing" textLength="7" x="241.2581" y="301.6422">1</text></g><!--MD5=[8182e990485b5057e20494be90e45372]
reverse link Stigespill to Terning--><g id="link_Stigespill_Terning"><path codeLine="48" d="M273.24,140.1094 C280.58,140.1094 287.92,140.1094 295.26,140.1094 " fill="none" id="Stigespill-backto-Terning" style="stroke:#A80036;stroke-width:1.0;"/><polygon fill="none" points="260.03,140.1094,266.03,144.1094,272.03,140.1094,266.03,136.1094,260.03,140.1094" style="stroke:#A80036;stroke-width:1.0;"/><text fill="#000000" font-family="sans-serif" font-size="13" lengthAdjust="spacing" textLength="7" x="267.8959" y="136.9375">1</text><text fill="#000000" font-family="sans-serif" font-size="13" lengthAdjust="spacing" textLength="7" x="280.4854" y="154.5724">1</text></g><!--MD5=[eb2ee8031b92706970b32689fb009c8f]
reverse link Spiller to Brikke--><g id="link_Spiller_Brikke"><path codeLine="49" d="M70.44,444.6294 C72.77,471.6394 75.42,502.3994 77.48,526.3394 " fill="none" id="Spiller-backto-Brikke" style="stroke:#A80036;stroke-width:1.0;"/><polygon fill="#A80036" points="69.29,431.3194,65.8188,437.64,70.3182,443.2752,73.7894,436.9546,69.29,431.3194" style="stroke:#A80036;stroke-width:1.0;"/><text fill="#000000" font-family="sans-serif" font-size="13" lengthAdjust="spacing" textLength="23" x="76" y="493.1045">Eier</text><text fill="#000000" font-family="sans-serif" font-size="13" lengthAdjust="spacing" textLength="7" x="62.3912" y="452.3702">1</text><text fill="#000000" font-family="sans-serif" font-size="13" lengthAdjust="spacing" textLength="7" x="69.3173" y="515.6023">1</text></g><!--MD5=[0efda7cabe16d3e523dc4cbaeacccae2]
link Spiller to Brett--><g id="link_Spiller_Brett"><path codeLine="50" d="M123.12,380.6094 C152.02,380.6094 187.27,380.6094 218.16,380.6094 " fill="none" id="Spiller-Brett" style="stroke:#A80036;stroke-width:1.0;"/><text fill="#000000" font-family="sans-serif" font-size="13" lengthAdjust="spacing" textLength="59" x="141.25" y="374.1045">Kan bruke</text></g><!--MD5=[9c4de56bde29491c5de84a438c649977]
link Brikke to Rute--><g id="link_Brikke_Rute"><path codeLine="51" d="M141.75,568.1094 C167.81,568.1094 198.37,568.1094 225.16,568.1094 " fill="none" id="Brikke-Rute" style="stroke:#A80036;stroke-width:1.0;"/><text fill="#000000" font-family="sans-serif" font-size="13" lengthAdjust="spacing" textLength="42" x="162.5" y="561.6045">St책r p책</text><text fill="#000000" font-family="sans-serif" font-size="13" lengthAdjust="spacing" textLength="22" x="149.5977" y="582.4868">0..4</text><text fill="#000000" font-family="sans-serif" font-size="13" lengthAdjust="spacing" textLength="7" x="210.5468" y="564.8535">1</text></g><!--MD5=[11c8fa4d9b80bdf77264cdae4091760d]
@startuml Klassediagram

skin rose

title Stigespill - Klasse Diagram

class Stigespill{
	-Terning : Terning
	-Brett : Brett
	-Spillere : List<Spiller>
	+initSpill()
	+spill()
	-sjekkSeier() : boolean
	-spillRunde()
	-hentSpillere()
}
class Brett{
	-Ruter : List<Rute>
	-Stiger : List<Stige>
	+startPosisjon : Rute
	+finnRute() : Rute
	+harStige() : Rute
}
class Rute{
	+Posisjon : Integer
}
class Stige{
	+StartPos : Rute
	+SluttPos : Rute
}
class Spiller{
	+Navn : String
	+Brikke : Brikke
	+spillTrekk()
}
class Brikke{
	+Farge : String
	+Posisjon : Rute
}
class Terning{
	+Trill() : Integer
}

Brett "1" *-down- "100 " Rute: Inneholder
Brett "1   " *-right- " 17" Stige: Inneholder
Stige "0..1    " -down-o "2" Rute
Stigespill "1  " o-down- "2..4" Spiller: Spiller
Stigespill "1" *-down- "1  " Brett
Stigespill "1   " o-right- "   1" Terning
Spiller "1" *-down- "1" Brikke: Eier
Spiller -right- Brett: Kan bruke
Brikke "0..4" -right- "   1" Rute: St책r p책

@enduml

PlantUML version 1.2022.7(Mon Aug 22 19:01:30 CEST 2022)
(GPL source distribution)
Java Runtime: OpenJDK Runtime Environment
JVM: OpenJDK 64-Bit Server VM
Default Encoding: UTF-8
Language: en
Country: GB
--></g></svg>