<?xml version="1.0" encoding="UTF-8" standalone="no"?><svg xmlns="http://www.w3.org/2000/svg" xmlns:xlink="http://www.w3.org/1999/xlink" contentStyleType="text/css" height="1075px" preserveAspectRatio="none" style="width:736px;height:1075px;background:#FFFFFF;" version="1.1" viewBox="0 0 736 1075" width="736px" zoomAndPan="magnify"><defs><filter height="300%" id="f1v78t2jrqlgn3" width="300%" x="-1" y="-1"><feGaussianBlur result="blurOut" stdDeviation="2.0"/><feColorMatrix in="blurOut" result="blurOut2" type="matrix" values="0 0 0 0 0 0 0 0 0 0 0 0 0 0 0 0 0 0 .4 0"/><feOffset dx="4.0" dy="4.0" in="blurOut2" result="blurOut3"/><feBlend in="SourceGraphic" in2="blurOut3" mode="normal"/></filter></defs><g><rect fill="none" height="27.6094" id="_title" style="stroke:none;stroke-width:1.0;" width="252" x="239.75" y="10"/><text fill="#000000" font-family="sans-serif" font-size="14" font-weight="bold" lengthAdjust="spacing" textLength="242" x="244.75" y="29.5332">Stigespill - spill - Sekvens Diagram</text><rect fill="none" filter="url(#f1v78t2jrqlgn3)" height="886.1953" style="stroke:#000000;stroke-width:2.0;" width="719.5" x="3" y="127.5703"/><rect fill="none" filter="url(#f1v78t2jrqlgn3)" height="853.8438" style="stroke:#000000;stroke-width:2.0;" width="709.5" x="3" y="152.9219"/><rect fill="none" filter="url(#f1v78t2jrqlgn3)" height="295.5156" style="stroke:#000000;stroke-width:2.0;" width="657.5" x="3" y="372.7344"/><rect fill="none" filter="url(#f1v78t2jrqlgn3)" height="79.0547" style="stroke:#000000;stroke-width:2.0;" width="647.5" x="3" y="519.4922"/><rect fill="none" filter="url(#f1v78t2jrqlgn3)" height="48.7031" style="stroke:#000000;stroke-width:2.0;" width="260" x="134.5" y="612.5469"/><rect fill="none" filter="url(#f1v78t2jrqlgn3)" height="92.0547" style="stroke:#000000;stroke-width:2.0;" width="162" x="3" y="907.7109"/><line style="stroke:#A80036;stroke-width:1.0;stroke-dasharray:5.0,5.0;" x1="63" x2="63" y1="80.2188" y2="1030.7656"/><line style="stroke:#A80036;stroke-width:1.0;stroke-dasharray:5.0,5.0;" x1="174.5" x2="174.5" y1="80.2188" y2="1030.7656"/><line style="stroke:#A80036;stroke-width:1.0;stroke-dasharray:5.0,5.0;" x1="250.5" x2="250.5" y1="80.2188" y2="1030.7656"/><line style="stroke:#A80036;stroke-width:1.0;stroke-dasharray:5.0,5.0;" x1="353.5" x2="353.5" y1="80.2188" y2="1030.7656"/><line style="stroke:#A80036;stroke-width:1.0;stroke-dasharray:5.0,5.0;" x1="420.5" x2="420.5" y1="80.2188" y2="1030.7656"/><line style="stroke:#A80036;stroke-width:1.0;stroke-dasharray:5.0,5.0;" x1="613.5" x2="613.5" y1="80.2188" y2="1030.7656"/><line style="stroke:#A80036;stroke-width:1.0;stroke-dasharray:5.0,5.0;" x1="676.5" x2="676.5" y1="80.2188" y2="1030.7656"/><rect fill="#FEFECE" filter="url(#f1v78t2jrqlgn3)" height="31.6094" style="stroke:#A80036;stroke-width:1.5;" width="74" x="24" y="43.6094"/><text fill="#000000" font-family="sans-serif" font-size="14" lengthAdjust="spacing" textLength="60" x="31" y="65.1426">:Stigespill</text><rect fill="#FEFECE" filter="url(#f1v78t2jrqlgn3)" height="31.6094" style="stroke:#A80036;stroke-width:1.5;" width="74" x="24" y="1029.7656"/><text fill="#000000" font-family="sans-serif" font-size="14" lengthAdjust="spacing" textLength="60" x="31" y="1051.2988">:Stigespill</text><rect fill="#FEFECE" filter="url(#f1v78t2jrqlgn3)" height="31.6094" style="stroke:#A80036;stroke-width:1.5;" width="57" x="144.5" y="43.6094"/><text fill="#000000" font-family="sans-serif" font-size="14" lengthAdjust="spacing" textLength="43" x="151.5" y="65.1426">:Spiller</text><rect fill="#FEFECE" filter="url(#f1v78t2jrqlgn3)" height="31.6094" style="stroke:#A80036;stroke-width:1.5;" width="57" x="144.5" y="1029.7656"/><text fill="#000000" font-family="sans-serif" font-size="14" lengthAdjust="spacing" textLength="43" x="151.5" y="1051.2988">:Spiller</text><rect fill="#FEFECE" filter="url(#f1v78t2jrqlgn3)" height="31.6094" style="stroke:#A80036;stroke-width:1.5;" width="67" x="215.5" y="43.6094"/><text fill="#000000" font-family="sans-serif" font-size="14" lengthAdjust="spacing" textLength="53" x="222.5" y="65.1426">:Terning</text><rect fill="#FEFECE" filter="url(#f1v78t2jrqlgn3)" height="31.6094" style="stroke:#A80036;stroke-width:1.5;" width="67" x="215.5" y="1029.7656"/><text fill="#000000" font-family="sans-serif" font-size="14" lengthAdjust="spacing" textLength="53" x="222.5" y="1051.2988">:Terning</text><rect fill="#FEFECE" filter="url(#f1v78t2jrqlgn3)" height="31.6094" style="stroke:#A80036;stroke-width:1.5;" width="57" x="323.5" y="43.6094"/><text fill="#000000" font-family="sans-serif" font-size="14" lengthAdjust="spacing" textLength="43" x="330.5" y="65.1426">:Brikke</text><rect fill="#FEFECE" filter="url(#f1v78t2jrqlgn3)" height="31.6094" style="stroke:#A80036;stroke-width:1.5;" width="57" x="323.5" y="1029.7656"/><text fill="#000000" font-family="sans-serif" font-size="14" lengthAdjust="spacing" textLength="43" x="330.5" y="1051.2988">:Brikke</text><rect fill="#FEFECE" filter="url(#f1v78t2jrqlgn3)" height="31.6094" style="stroke:#A80036;stroke-width:1.5;" width="48" x="394.5" y="43.6094"/><text fill="#000000" font-family="sans-serif" font-size="14" lengthAdjust="spacing" textLength="34" x="401.5" y="65.1426">:Brett</text><rect fill="#FEFECE" filter="url(#f1v78t2jrqlgn3)" height="31.6094" style="stroke:#A80036;stroke-width:1.5;" width="48" x="394.5" y="1029.7656"/><text fill="#000000" font-family="sans-serif" font-size="14" lengthAdjust="spacing" textLength="34" x="401.5" y="1051.2988">:Brett</text><rect fill="#FEFECE" filter="url(#f1v78t2jrqlgn3)" height="31.6094" style="stroke:#A80036;stroke-width:1.5;" width="50" x="586.5" y="43.6094"/><text fill="#000000" font-family="sans-serif" font-size="14" lengthAdjust="spacing" textLength="36" x="593.5" y="65.1426">:Stige</text><rect fill="#FEFECE" filter="url(#f1v78t2jrqlgn3)" height="31.6094" style="stroke:#A80036;stroke-width:1.5;" width="50" x="586.5" y="1029.7656"/><text fill="#000000" font-family="sans-serif" font-size="14" lengthAdjust="spacing" textLength="36" x="593.5" y="1051.2988">:Stige</text><rect fill="#FEFECE" filter="url(#f1v78t2jrqlgn3)" height="31.6094" style="stroke:#A80036;stroke-width:1.5;" width="48" x="650.5" y="43.6094"/><text fill="#000000" font-family="sans-serif" font-size="14" lengthAdjust="spacing" textLength="34" x="657.5" y="65.1426">:Rute</text><rect fill="#FEFECE" filter="url(#f1v78t2jrqlgn3)" height="31.6094" style="stroke:#A80036;stroke-width:1.5;" width="48" x="650.5" y="1029.7656"/><text fill="#000000" font-family="sans-serif" font-size="14" lengthAdjust="spacing" textLength="34" x="657.5" y="1051.2988">:Rute</text><polygon fill="#A80036" points="51,108.5703,61,112.5703,51,116.5703,55,112.5703" style="stroke:#A80036;stroke-width:1.0;"/><line style="stroke:#A80036;stroke-width:1.0;" x1="0" x2="57" y1="112.5703" y2="112.5703"/><text fill="#000000" font-family="sans-serif" font-size="13" lengthAdjust="spacing" textLength="31" x="7" y="107.7139">spill()</text><path d="M3,127.5703 L76,127.5703 L76,135.9219 L66,145.9219 L3,145.9219 L3,127.5703 " fill="#EEEEEE" style="stroke:#000000;stroke-width:1.0;"/><rect fill="none" height="886.1953" style="stroke:#000000;stroke-width:2.0;" width="719.5" x="3" y="127.5703"/><text fill="#000000" font-family="sans-serif" font-size="13" font-weight="bold" lengthAdjust="spacing" textLength="28" x="18" y="142.0654">loop</text><text fill="#000000" font-family="sans-serif" font-size="11" font-weight="bold" lengthAdjust="spacing" textLength="56" x="91" y="140.9893">[til vinner]</text><path d="M3,152.9219 L76,152.9219 L76,161.2734 L66,171.2734 L3,171.2734 L3,152.9219 " fill="#EEEEEE" style="stroke:#000000;stroke-width:1.0;"/><rect fill="none" height="853.8438" style="stroke:#000000;stroke-width:2.0;" width="709.5" x="3" y="152.9219"/><text fill="#000000" font-family="sans-serif" font-size="13" font-weight="bold" lengthAdjust="spacing" textLength="28" x="18" y="167.417">loop</text><text fill="#000000" font-family="sans-serif" font-size="11" font-weight="bold" lengthAdjust="spacing" textLength="72" x="91" y="166.3408">[alle spillere]</text><polygon fill="#A80036" points="163,189.625,173,193.625,163,197.625,167,193.625" style="stroke:#A80036;stroke-width:1.0;"/><line style="stroke:#A80036;stroke-width:1.0;" x1="63" x2="169" y1="193.625" y2="193.625"/><text fill="#000000" font-family="sans-serif" font-size="13" lengthAdjust="spacing" textLength="63" x="70" y="188.7686">spillTrekk()</text><polygon fill="#A80036" points="239,219.9766,249,223.9766,239,227.9766,243,223.9766" style="stroke:#A80036;stroke-width:1.0;"/><line style="stroke:#A80036;stroke-width:1.0;" x1="175" x2="245" y1="223.9766" y2="223.9766"/><text fill="#000000" font-family="sans-serif" font-size="13" lengthAdjust="spacing" textLength="25" x="182" y="219.1201">trill()</text><polygon fill="#A80036" points="342,250.3281,352,254.3281,342,258.3281,346,254.3281" style="stroke:#A80036;stroke-width:1.0;"/><line style="stroke:#A80036;stroke-width:1.0;" x1="175" x2="348" y1="254.3281" y2="254.3281"/><text fill="#000000" font-family="sans-serif" font-size="13" lengthAdjust="spacing" textLength="110" x="182" y="249.4717">hentRutePosisjon()</text><polygon fill="#A80036" points="664.5,280.6797,674.5,284.6797,664.5,288.6797,668.5,284.6797" style="stroke:#A80036;stroke-width:1.0;"/><line style="stroke:#A80036;stroke-width:1.0;" x1="354" x2="670.5" y1="284.6797" y2="284.6797"/><text fill="#000000" font-family="sans-serif" font-size="13" lengthAdjust="spacing" textLength="103" x="361" y="279.8232">getRutePosisjon()</text><path d="M105,297.6797 L105,356.6797 L240,356.6797 L240,307.6797 L230,297.6797 L105,297.6797 " fill="#FBFB77" filter="url(#f1v78t2jrqlgn3)" style="stroke:#A80036;stroke-width:1.0;"/><path d="M230,297.6797 L230,307.6797 L240,307.6797 L230,297.6797 " fill="#FBFB77" style="stroke:#A80036;stroke-width:1.0;"/><text fill="#000000" font-family="sans-serif" font-size="13" lengthAdjust="spacing" textLength="49" x="111" y="316.1748">nyPos =</text><text fill="#000000" font-family="sans-serif" font-size="13" lengthAdjust="spacing" textLength="37" x="115" y="332.5264">trill() +</text><text fill="#000000" font-family="sans-serif" font-size="13" lengthAdjust="spacing" textLength="110" x="115" y="348.8779">hentRutePosisjon()</text><path d="M3,372.7344 L64,372.7344 L64,381.0859 L54,391.0859 L3,391.0859 L3,372.7344 " fill="#EEEEEE" style="stroke:#000000;stroke-width:1.0;"/><rect fill="none" height="295.5156" style="stroke:#000000;stroke-width:2.0;" width="657.5" x="3" y="372.7344"/><text fill="#000000" font-family="sans-serif" font-size="13" font-weight="bold" lengthAdjust="spacing" textLength="16" x="18" y="387.2295">alt</text><text fill="#000000" font-family="sans-serif" font-size="11" font-weight="bold" lengthAdjust="spacing" textLength="78" x="79" y="386.1533">[nypos &lt;= 100]</text><polygon fill="#A80036" points="408.5,409.4375,418.5,413.4375,408.5,417.4375,412.5,413.4375" style="stroke:#A80036;stroke-width:1.0;"/><line style="stroke:#A80036;stroke-width:1.0;" x1="175" x2="414.5" y1="413.4375" y2="413.4375"/><text fill="#000000" font-family="sans-serif" font-size="13" lengthAdjust="spacing" textLength="149" x="182" y="408.5811">nyRute = finnRute(nyPos)</text><polygon fill="#A80036" points="342,439.7891,352,443.7891,342,447.7891,346,443.7891" style="stroke:#A80036;stroke-width:1.0;"/><line style="stroke:#A80036;stroke-width:1.0;" x1="175" x2="348" y1="443.7891" y2="443.7891"/><text fill="#000000" font-family="sans-serif" font-size="13" lengthAdjust="spacing" textLength="117" x="182" y="438.9326">setPosisjon(nyRute)</text><polygon fill="#A80036" points="408.5,470.1406,418.5,474.1406,408.5,478.1406,412.5,474.1406" style="stroke:#A80036;stroke-width:1.0;"/><line style="stroke:#A80036;stroke-width:1.0;" x1="175" x2="414.5" y1="474.1406" y2="474.1406"/><text fill="#000000" font-family="sans-serif" font-size="13" lengthAdjust="spacing" textLength="168" x="182" y="469.2842">stigeSlutt = harStige(nyRute)</text><polygon fill="#A80036" points="601.5,500.4922,611.5,504.4922,601.5,508.4922,605.5,504.4922" style="stroke:#A80036;stroke-width:1.0;"/><line style="stroke:#A80036;stroke-width:1.0;" x1="420.5" x2="607.5" y1="504.4922" y2="504.4922"/><text fill="#000000" font-family="sans-serif" font-size="13" lengthAdjust="spacing" textLength="169" x="427.5" y="499.6357">startPos = getStartPosisjon()</text><path d="M3,519.4922 L64,519.4922 L64,527.8438 L54,537.8438 L3,537.8438 L3,519.4922 " fill="#EEEEEE" style="stroke:#000000;stroke-width:1.0;"/><rect fill="none" height="79.0547" style="stroke:#000000;stroke-width:2.0;" width="647.5" x="3" y="519.4922"/><text fill="#000000" font-family="sans-serif" font-size="13" font-weight="bold" lengthAdjust="spacing" textLength="16" x="18" y="533.9873">alt</text><text fill="#000000" font-family="sans-serif" font-size="11" font-weight="bold" lengthAdjust="spacing" textLength="121" x="79" y="532.9111">[posisjon == startPos]</text><polygon fill="#A80036" points="601.5,556.1953,611.5,560.1953,601.5,564.1953,605.5,560.1953" style="stroke:#A80036;stroke-width:1.0;"/><line style="stroke:#A80036;stroke-width:1.0;" x1="420.5" x2="607.5" y1="560.1953" y2="560.1953"/><text fill="#000000" font-family="sans-serif" font-size="13" lengthAdjust="spacing" textLength="167" x="427.5" y="555.3389">sluttPos = getSluttPosisjon()</text><polygon fill="#A80036" points="11,586.5469,1,590.5469,11,594.5469,7,590.5469" style="stroke:#A80036;stroke-width:1.0;"/><line style="stroke:#A80036;stroke-width:1.0;" x1="5" x2="419.5" y1="590.5469" y2="590.5469"/><text fill="#000000" font-family="sans-serif" font-size="13" lengthAdjust="spacing" textLength="48" x="17" y="585.6904">sluttPos</text><path d="M134.5,612.5469 L195.5,612.5469 L195.5,620.8984 L185.5,630.8984 L134.5,630.8984 L134.5,612.5469 " fill="#EEEEEE" style="stroke:#000000;stroke-width:1.0;"/><rect fill="none" height="48.7031" style="stroke:#000000;stroke-width:2.0;" width="260" x="134.5" y="612.5469"/><text fill="#000000" font-family="sans-serif" font-size="13" font-weight="bold" lengthAdjust="spacing" textLength="16" x="149.5" y="627.042">alt</text><text fill="#000000" font-family="sans-serif" font-size="11" font-weight="bold" lengthAdjust="spacing" textLength="96" x="210.5" y="625.9658">[stigeSlutt != null]</text><polygon fill="#A80036" points="342,649.25,352,653.25,342,657.25,346,653.25" style="stroke:#A80036;stroke-width:1.0;"/><line style="stroke:#A80036;stroke-width:1.0;" x1="175" x2="348" y1="653.25" y2="653.25"/><text fill="#000000" font-family="sans-serif" font-size="13" lengthAdjust="spacing" textLength="131" x="182" y="648.3936">setPosisjon(stigeSlutt)</text><polygon fill="#A80036" points="408.5,693.6016,418.5,697.6016,408.5,701.6016,412.5,697.6016" style="stroke:#A80036;stroke-width:1.0;"/><line style="stroke:#A80036;stroke-width:1.0;" x1="63" x2="414.5" y1="697.6016" y2="697.6016"/><text fill="#000000" font-family="sans-serif" font-size="13" lengthAdjust="spacing" textLength="130" x="70" y="692.7451">rute = finnRute(nyPos)</text><polygon fill="#A80036" points="163,723.9531,173,727.9531,163,731.9531,167,727.9531" style="stroke:#A80036;stroke-width:1.0;"/><line style="stroke:#A80036;stroke-width:1.0;" x1="63" x2="169" y1="727.9531" y2="727.9531"/><text fill="#000000" font-family="sans-serif" font-size="13" lengthAdjust="spacing" textLength="88" x="70" y="723.0967">flyttBrikke(rute)</text><polygon fill="#A80036" points="342,754.3047,352,758.3047,342,762.3047,346,758.3047" style="stroke:#A80036;stroke-width:1.0;"/><line style="stroke:#A80036;stroke-width:1.0;" x1="175" x2="348" y1="758.3047" y2="758.3047"/><text fill="#000000" font-family="sans-serif" font-size="13" lengthAdjust="spacing" textLength="98" x="182" y="753.4482">setPosisjon(rute)</text><line style="stroke:#A80036;stroke-width:1.0;" x1="63" x2="105" y1="788.6563" y2="788.6563"/><line style="stroke:#A80036;stroke-width:1.0;" x1="105" x2="105" y1="788.6563" y2="801.6563"/><line style="stroke:#A80036;stroke-width:1.0;" x1="64" x2="105" y1="801.6563" y2="801.6563"/><polygon fill="#A80036" points="74,797.6563,64,801.6563,74,805.6563,70,801.6563" style="stroke:#A80036;stroke-width:1.0;"/><text fill="#000000" font-family="sans-serif" font-size="13" lengthAdjust="spacing" textLength="69" x="70" y="783.7998">sjekkSeier()</text><polygon fill="#A80036" points="163,828.0078,173,832.0078,163,836.0078,167,832.0078" style="stroke:#A80036;stroke-width:1.0;"/><line style="stroke:#A80036;stroke-width:1.0;" x1="63" x2="169" y1="832.0078" y2="832.0078"/><text fill="#000000" font-family="sans-serif" font-size="13" lengthAdjust="spacing" textLength="63" x="70" y="827.1514">getBrikke()</text><polygon fill="#A80036" points="342,858.3594,352,862.3594,342,866.3594,346,862.3594" style="stroke:#A80036;stroke-width:1.0;"/><line style="stroke:#A80036;stroke-width:1.0;" x1="175" x2="348" y1="862.3594" y2="862.3594"/><text fill="#000000" font-family="sans-serif" font-size="13" lengthAdjust="spacing" textLength="155" x="182" y="857.5029">hentRutePosisjon() &gt;= 100</text><polygon fill="#A80036" points="664.5,888.7109,674.5,892.7109,664.5,896.7109,668.5,892.7109" style="stroke:#A80036;stroke-width:1.0;"/><line style="stroke:#A80036;stroke-width:1.0;" x1="354" x2="670.5" y1="892.7109" y2="892.7109"/><text fill="#000000" font-family="sans-serif" font-size="13" lengthAdjust="spacing" textLength="103" x="361" y="887.8545">getRutePosisjon()</text><path d="M3,907.7109 L64,907.7109 L64,916.0625 L54,926.0625 L3,926.0625 L3,907.7109 " fill="#EEEEEE" style="stroke:#000000;stroke-width:1.0;"/><rect fill="none" height="92.0547" style="stroke:#000000;stroke-width:2.0;" width="162" x="3" y="907.7109"/><text fill="#000000" font-family="sans-serif" font-size="13" font-weight="bold" lengthAdjust="spacing" textLength="16" x="18" y="922.2061">alt</text><text fill="#000000" font-family="sans-serif" font-size="11" font-weight="bold" lengthAdjust="spacing" textLength="31" x="79" y="921.1299">[true]</text><line style="stroke:#A80036;stroke-width:1.0;stroke-dasharray:2.0,2.0;" x1="63" x2="105" y1="948.4141" y2="948.4141"/><line style="stroke:#A80036;stroke-width:1.0;stroke-dasharray:2.0,2.0;" x1="105" x2="105" y1="948.4141" y2="961.4141"/><line style="stroke:#A80036;stroke-width:1.0;stroke-dasharray:2.0,2.0;" x1="64" x2="105" y1="961.4141" y2="961.4141"/><polygon fill="#A80036" points="74,957.4141,64,961.4141,74,965.4141,70,961.4141" style="stroke:#A80036;stroke-width:1.0;"/><text fill="#000000" font-family="sans-serif" font-size="13" lengthAdjust="spacing" textLength="83" x="70" y="943.5576">vinner = spiller</text><polygon fill="#A80036" points="11,987.7656,1,991.7656,11,995.7656,7,991.7656" style="stroke:#A80036;stroke-width:1.0;"/><line style="stroke:#A80036;stroke-width:1.0;" x1="5" x2="62" y1="991.7656" y2="991.7656"/><text fill="#000000" font-family="sans-serif" font-size="13" lengthAdjust="spacing" textLength="32" x="17" y="986.9092">break</text><!--MD5=[d83832debcc94755ba85faba6711ff11]
@startuml Sekvens_spill

skin rose

title "Stigespill - spill - Sekvens Diagram"

participant ":Stigespill" as sp
participant ":Spiller" as s
participant ":Terning" as t
participant ":Brikke" as br
participant ":Brett" as bt
participant ":Stige" as st
participant ":Rute" as r

!startsub spill
-> sp: spill()
loop til vinner
	loop alle spillere
		!includesub Sekvens_spill_spillTrekk.puml!spillTrekk
		sp -> bt: rute = finnRute(nyPos)
		sp -> s: flyttBrikke(rute)
		s -> br: setPosisjon(rute)
		!includesub Sekvens_spill_sjekkSeier.puml!sjekkSeier
	end
end


!endsub

@enduml

@startuml Sekvens_spill

skin rose

title "Stigespill - spill - Sekvens Diagram"

participant ":Stigespill" as sp
participant ":Spiller" as s
participant ":Terning" as t
participant ":Brikke" as br
participant ":Brett" as bt
participant ":Stige" as st
participant ":Rute" as r

-> sp: spill()
loop til vinner
	loop alle spillere
sp -> s: spillTrekk()
s -> t: trill()
s -> br: hentRutePosisjon()
br -> r: getRutePosisjon()
note over s: nyPos =\n trill() +\n hentRutePosisjon()
alt nypos <= 100
	s -> bt: nyRute = finnRute(nyPos)
	s -> br: setPosisjon(nyRute)
	s -> bt: stigeSlutt = harStige(nyRute)
bt -> st: startPos = getStartPosisjon()
alt posisjon == startPos
	bt -> st: sluttPos = getSluttPosisjon()
	<- bt: sluttPos
end

	alt stigeSlutt != null
		s -> br: setPosisjon(stigeSlutt)
	end
end


		sp -> bt: rute = finnRute(nyPos)
		sp -> s: flyttBrikke(rute)
		s -> br: setPosisjon(rute)
sp -> sp: sjekkSeier()
sp -> s: getBrikke()
s -> br: hentRutePosisjon() >= 100
br -> r: getRutePosisjon()
alt true
	sp - -> sp: vinner = spiller
	<- sp: break
end
	end
end



@enduml

PlantUML version 1.2022.7(Mon Aug 22 19:01:30 CEST 2022)
(GPL source distribution)
Java Runtime: OpenJDK Runtime Environment
JVM: OpenJDK 64-Bit Server VM
Default Encoding: UTF-8
Language: en
Country: GB
--></g></svg>